<svg width="300" height="300" viewBox="0 0 300 300" fill="none" xmlns="http://www.w3.org/2000/svg">
<g clip-path="url(#clip0_105_201)">
<mask id="mask0_105_201" style="mask-type:alpha" maskUnits="userSpaceOnUse" x="98" y="94" width="157" height="186">
<path d="M201.341 111.336L209.397 96.8012C209.501 96.6147 209.566 96.4097 209.591 96.1979C209.615 95.986 209.597 95.7715 209.538 95.5665C209.479 95.3616 209.381 95.1702 209.248 95.0033C209.115 94.8365 208.951 94.6974 208.765 94.594C208.388 94.3852 207.944 94.3346 207.53 94.4533C207.116 94.572 206.766 94.8502 206.558 95.2268L198.412 109.923C191.461 106.876 183.955 105.303 176.366 105.303C168.777 105.303 161.27 106.876 154.32 109.923L146.174 95.2268C145.965 94.8502 145.615 94.572 145.201 94.4533C144.787 94.3346 144.343 94.3852 143.966 94.594C143.59 94.8028 143.312 95.1526 143.193 95.5665C143.074 95.9805 143.125 96.4246 143.334 96.8012L151.391 111.336C143.721 115.117 137.241 120.936 132.661 128.157C128.081 135.377 125.578 143.719 125.427 152.268H227.305C227.153 143.719 224.65 135.377 220.07 128.157C215.49 120.936 209.01 115.117 201.341 111.336ZM152.855 133.627C152.013 133.627 151.191 133.378 150.491 132.91C149.792 132.443 149.247 131.779 148.925 131.001C148.603 130.224 148.518 129.369 148.683 128.543C148.847 127.718 149.252 126.96 149.847 126.365C150.442 125.77 151.2 125.365 152.025 125.201C152.85 125.037 153.705 125.121 154.483 125.443C155.26 125.765 155.925 126.31 156.392 127.01C156.859 127.709 157.109 128.532 157.109 129.373C157.108 130.501 156.659 131.582 155.862 132.38C155.064 133.177 153.983 133.626 152.855 133.627ZM199.876 133.627C199.035 133.627 198.212 133.378 197.513 132.91C196.813 132.443 196.268 131.779 195.946 131.001C195.624 130.224 195.54 129.369 195.704 128.543C195.868 127.718 196.273 126.96 196.868 126.365C197.463 125.77 198.221 125.365 199.046 125.201C199.872 125.037 200.727 125.121 201.504 125.443C202.282 125.765 202.946 126.31 203.413 127.01C203.881 127.709 204.13 128.532 204.13 129.373C204.129 130.501 203.681 131.582 202.883 132.38C202.085 133.177 201.004 133.626 199.876 133.627ZM125.426 230.133C125.426 233.4 126.723 236.532 129.033 238.841C131.342 241.151 134.475 242.448 137.741 242.448H145.913V267.639C145.909 269.141 146.202 270.629 146.774 272.018C147.346 273.407 148.186 274.67 149.247 275.733C150.308 276.797 151.568 277.641 152.956 278.217C154.343 278.793 155.831 279.089 157.333 279.089C158.835 279.089 160.323 278.793 161.71 278.217C163.098 277.641 164.358 276.797 165.419 275.733C166.48 274.67 167.32 273.407 167.892 272.018C168.464 270.629 168.757 269.141 168.753 267.639V242.448H183.978V267.639C183.974 269.141 184.267 270.629 184.839 272.018C185.411 273.407 186.251 274.67 187.312 275.733C188.373 276.797 189.633 277.641 191.021 278.217C192.408 278.793 193.896 279.089 195.398 279.089C196.9 279.089 198.388 278.793 199.775 278.217C201.163 277.641 202.423 276.797 203.484 275.733C204.545 274.67 205.385 273.407 205.957 272.018C206.529 270.629 206.822 269.141 206.818 267.639V242.448H214.99C216.608 242.448 218.209 242.13 219.703 241.511C221.197 240.892 222.555 239.985 223.699 238.841C224.842 237.698 225.749 236.34 226.368 234.846C226.987 233.352 227.306 231.751 227.306 230.133V156.298H125.426V230.133ZM109.752 154.339C106.724 154.343 103.822 155.547 101.681 157.688C99.5399 159.829 98.3357 162.731 98.3323 165.759V213.34C98.3282 214.842 98.6206 216.331 99.1926 217.72C99.7647 219.109 100.605 220.371 101.666 221.435C102.727 222.499 103.987 223.343 105.375 223.918C106.762 224.494 108.25 224.791 109.752 224.791C111.254 224.791 112.742 224.494 114.129 223.918C115.517 223.343 116.777 222.499 117.838 221.435C118.899 220.371 119.739 219.109 120.311 217.72C120.883 216.331 121.176 214.842 121.172 213.34V165.759C121.168 162.731 119.964 159.829 117.823 157.688C115.682 155.547 112.78 154.343 109.752 154.339ZM242.979 154.339C239.952 154.343 237.049 155.547 234.908 157.688C232.767 159.829 231.563 162.731 231.56 165.759V213.34C231.555 214.842 231.848 216.331 232.42 217.72C232.992 219.109 233.832 220.371 234.893 221.435C235.954 222.499 237.214 223.343 238.602 223.918C239.989 224.494 241.477 224.791 242.979 224.791C244.481 224.791 245.969 224.494 247.357 223.918C248.744 223.343 250.004 222.499 251.065 221.435C252.126 220.371 252.966 219.109 253.539 217.72C254.111 216.331 254.403 214.842 254.399 213.34V165.759C254.395 162.731 253.191 159.829 251.05 157.688C248.91 155.547 246.007 154.343 242.979 154.339Z" fill="black"/>
</mask>
<g mask="url(#mask0_105_201)">
<rect x="102.762" y="246.483" width="175.315" height="102.723" transform="rotate(-49.0618 102.762 246.483)" fill="black"/>
</g>
<mask id="mask1_105_201" style="mask-type:alpha" maskUnits="userSpaceOnUse" x="42" y="0" width="167" height="198">
<path d="M180.848 104.277C180.76 88.109 188.073 75.9059 202.875 66.9188C194.593 55.0681 182.081 48.548 165.561 47.2705C149.922 46.0369 132.829 56.3897 126.573 56.3897C119.965 56.3897 104.81 47.711 92.9152 47.711C68.3328 48.1075 42.2085 67.3152 42.2085 106.392C42.2085 117.934 44.3231 129.858 48.5523 142.164C54.1913 158.332 74.5445 197.981 95.7787 197.32C106.88 197.056 114.722 189.434 129.172 189.434C143.181 189.434 150.45 197.32 162.83 197.32C184.24 197.012 202.655 160.975 208.03 144.763C179.306 131.238 180.848 105.114 180.848 104.277ZM155.913 31.9395C167.94 17.6658 166.839 4.66978 166.486 0C155.869 0.616763 143.578 7.22494 136.573 15.375C128.864 24.0978 124.326 34.8912 125.295 47.0502C136.793 47.9313 147.278 42.028 155.913 31.9395Z" fill="black"/>
</mask>
<g mask="url(#mask1_105_201)">
<rect x="-5.04361" y="118.397" width="205.431" height="116.017" transform="rotate(-48.886 -5.04361 118.397)" fill="black"/>
</g>
<path d="M34.5546 284.327L264.415 24.5313" stroke="black" stroke-width="30" stroke-linecap="round"/>
</g>
<defs>
<clipPath id="clip0_105_201">
<rect width="300" height="300" fill="white"/>
</clipPath>
</defs>
</svg>
