<svg width="300" height="300" viewBox="0 0 300 300" fill="none" xmlns="http://www.w3.org/2000/svg">
<path d="M281.249 145.696C269.831 94.0793 252.896 61.1533 225.754 53.1297C220.497 51.5962 215.046 50.8312 209.57 50.8585C192.883 50.8585 179.716 60.7872 149.998 60.7872C120.28 60.7872 107.087 50.8585 90.4257 50.8585C84.7213 50.829 79.0406 51.5934 73.547 53.1297C46.3672 61.1533 29.5753 94.1103 18.027 145.696C6.23672 198.386 8.37138 240.018 31.4183 248.011C47.5524 253.596 61.98 242.048 75.6444 225.051C91.1579 205.69 110.264 199.733 149.998 199.733C189.731 199.733 208.093 205.69 223.631 225.051C237.283 242.06 252.245 253.466 267.95 248.11C293.405 239.417 293.045 199.007 281.249 145.696Z" stroke="black" stroke-width="15.3111" stroke-miterlimit="10"/>
<path d="M172.337 142.699C179.192 142.699 184.748 137.142 184.748 130.288C184.748 123.434 179.192 117.877 172.337 117.877C165.483 117.877 159.927 123.434 159.927 130.288C159.927 137.142 165.483 142.699 172.337 142.699Z" fill="black"/>
<path d="M199.641 170.003C197.185 170.003 194.784 169.274 192.743 167.909C190.701 166.544 189.111 164.604 188.172 162.334C187.234 160.064 186.99 157.567 187.471 155.159C187.952 152.751 189.138 150.54 190.876 148.805C192.615 147.071 194.829 145.891 197.239 145.416C199.649 144.94 202.145 145.191 204.412 146.135C206.679 147.079 208.616 148.674 209.976 150.719C211.335 152.764 212.058 155.167 212.052 157.623C212.044 160.909 210.733 164.058 208.406 166.379C206.079 168.699 202.927 170.003 199.641 170.003Z" fill="black"/>
<path d="M199.641 115.395C206.496 115.395 212.052 109.838 212.052 102.984C212.052 96.1297 206.496 90.5732 199.641 90.5732C192.787 90.5732 187.23 96.1297 187.23 102.984C187.23 109.838 192.787 115.395 199.641 115.395Z" fill="black"/>
<path d="M226.945 142.699C233.799 142.699 239.356 137.142 239.356 130.288C239.356 123.434 233.799 117.877 226.945 117.877C220.091 117.877 214.534 123.434 214.534 130.288C214.534 137.142 220.091 142.699 226.945 142.699Z" fill="black"/>
<path d="M90.4255 100.502V160.074" stroke="black" stroke-width="15.3111" stroke-linecap="round" stroke-linejoin="round"/>
<path d="M120.212 130.288H60.6396" stroke="black" stroke-width="15.3111" stroke-linecap="round" stroke-linejoin="round"/>
</svg>
