<svg width="300" height="300" viewBox="0 0 300 300" fill="none" xmlns="http://www.w3.org/2000/svg">
<path d="M54.7032 170.31V292.043H27.6194V170.31H54.7032Z" fill="black"/>
<path d="M298.458 170.31V197.362H271.374V292.043H244.29V197.362H217.206V170.31H298.458Z" fill="black"/>
<path d="M149.496 143.259C168.471 143.357 187.043 148.736 203.127 158.793L222.722 139.184C201.215 124.278 175.674 116.264 149.496 116.207C123.666 116.26 98.4687 124.193 77.2759 138.942L96.8996 158.58C112.655 148.666 130.875 143.358 149.496 143.259Z" fill="black"/>
<path d="M149.497 89.1553C182.841 89.2218 215.283 99.9815 242.043 119.85L261.362 100.517C229.376 75.6653 190.021 62.1509 149.497 62.1037C109.321 62.1544 70.3103 75.5875 38.6388 100.277L57.9564 119.608C84.4034 99.9006 116.501 89.2227 149.497 89.1553Z" fill="black"/>
<path d="M149.497 35.0519C197.209 35.0606 243.489 51.3348 280.682 81.1832L300 61.8517C257.776 27.0803 204.768 8.04412 150.043 8.00008C95.3189 7.95604 42.2797 26.9068 0 61.6102L19.3188 80.9425C56.1986 51.2588 102.133 35.0658 149.497 35.0519Z" fill="black"/>
<path d="M149.497 170.31C137.444 170.31 125.662 173.88 115.641 180.568C105.62 187.256 97.809 196.762 93.1967 207.884C88.5844 219.006 87.3776 231.244 89.729 243.051C92.0803 254.858 97.8841 265.703 106.407 274.215C114.929 282.728 125.787 288.524 137.608 290.873C149.429 293.222 161.682 292.016 172.817 287.409C183.952 282.803 193.469 275.001 200.165 264.992C206.861 254.982 210.435 243.215 210.435 231.176C210.435 215.034 204.015 199.552 192.587 188.137C181.159 176.723 165.659 170.31 149.497 170.31ZM149.497 264.991C142.801 264.991 136.255 263.008 130.688 259.292C125.121 255.577 120.781 250.295 118.219 244.117C115.657 237.938 114.986 231.139 116.292 224.579C117.599 218.02 120.823 211.995 125.558 207.266C130.292 202.537 136.325 199.316 142.892 198.012C149.459 196.707 156.266 197.376 162.452 199.936C168.638 202.495 173.926 206.829 177.646 212.39C181.366 217.951 183.351 224.488 183.351 231.176C183.351 240.145 179.785 248.745 173.436 255.087C167.087 261.428 158.476 264.991 149.497 264.991Z" fill="black"/>
</svg>
