<svg width="300" height="300" viewBox="0 0 300 300" fill="none" xmlns="http://www.w3.org/2000/svg">
<path d="M150 0C67.1739 0 0 67.1739 0 150C0 232.826 67.1739 300 150 300C232.826 300 300 232.826 300 150C300 67.1739 232.826 0 150 0ZM162.065 273.261C161.413 273.261 160.761 273.261 159.783 273.587V202.826C176.739 202.5 192.065 202.174 206.087 201.196C193.696 239.348 170.543 264.783 162.065 273.261ZM137.935 273.261C129.13 264.457 106.304 239.022 93.913 201.196C107.609 202.174 123.261 202.826 140.217 202.826V273.587C139.565 273.587 138.913 273.261 137.935 273.261ZM26.087 150C26.087 141.848 27.0652 133.696 28.3696 125.87C35.5435 124.565 49.2391 122.609 68.4783 120.652C66.8478 130.109 65.8696 139.891 65.8696 150.326C65.8696 160.761 66.8478 170.543 68.1522 179.674C49.2391 177.717 35.2174 175.761 28.0435 174.457C27.0652 166.304 26.087 158.152 26.087 150ZM85.7609 150C85.7609 138.913 87.0652 128.478 89.0217 118.696C104.022 117.717 120.978 116.739 140.217 116.739V183.261C121.304 182.935 104.022 182.283 88.6957 180.978C87.0652 171.522 85.7609 161.087 85.7609 150ZM161.739 26.7391C170.543 35.5435 193.043 61.6304 205.761 98.8043C192.065 97.8261 176.739 97.1739 159.783 97.1739V26.413C160.435 26.413 161.087 26.7391 161.739 26.7391ZM140.217 26.413V97.1739C123.261 97.5 107.935 97.8261 94.2391 98.8043C106.63 61.6304 129.457 35.5435 137.935 26.7391C138.913 26.7391 139.565 26.413 140.217 26.413ZM159.783 183.261V116.739C178.696 117.065 195.978 117.717 210.978 118.696C212.935 128.478 214.239 138.913 214.239 150C214.239 161.087 213.261 171.522 211.304 181.304C196.304 182.283 179.022 182.935 159.783 183.261ZM231.196 120.652C250.435 122.609 264.13 124.565 271.304 125.87C272.935 133.696 273.913 141.848 273.913 150C273.913 158.152 272.935 166.304 271.63 174.13C264.457 175.435 250.761 177.391 231.522 179.348C233.152 169.891 233.804 160.109 233.804 149.674C233.804 139.891 232.826 129.783 231.196 120.652ZM265.435 105C256.304 103.696 243.261 102.065 226.63 100.435C218.804 72.3913 205.109 49.8913 193.696 33.913C226.63 46.3043 252.717 72.3913 265.435 105ZM106.304 33.913C94.5652 49.5652 81.1956 72.0652 73.3696 100.109C57.0652 101.413 44.0217 103.37 34.5652 104.674C47.2826 72.3913 73.6956 46.3043 106.304 33.913ZM34.5652 195C43.6957 196.304 56.7391 197.935 73.0435 199.565C80.8696 227.609 93.913 250.109 105.652 265.761C73.0435 253.043 47.2826 227.283 34.5652 195ZM194.348 265.761C206.087 250.109 219.13 227.935 226.957 199.891C243.261 198.587 256.304 196.63 265.435 195.326C252.717 227.283 226.957 253.043 194.348 265.761Z" fill="black"/>
</svg>
