<svg width="300" height="360" viewBox="0 0 300 360" fill="none" xmlns="http://www.w3.org/2000/svg">
<path d="M188.098 340.679H171.756L166.943 349.217C163.187 355.878 156.132 360 148.481 360H148.472C140.825 360 133.769 355.878 130.01 349.217L125.197 340.679H108.855V329.17H188.101L188.098 340.679Z" fill="#51514C"/>
<path d="M188.098 320.74H108.853V308.611H188.098V320.74ZM188.098 287.544H108.853V299.673H188.098V287.544Z" fill="#A7A79B"/>
<path d="M229.935 63.0227L237.061 70.149L262.397 44.8129L255.271 37.6866L229.935 63.0227Z" fill="#706000"/>
<path d="M37 44.8129L62.3332 70.149L69.4595 63.0227L44.1263 37.6866L37 44.8129Z" fill="#706000"/>
<path d="M175.504 34.6082L185.238 37.2161L194.513 2.60787L184.779 0L175.504 34.6082Z" fill="#706000"/>
<path d="M104.884 2.60787L114.156 37.2161L123.893 34.6082L114.618 0L104.884 2.60787Z" fill="#706000"/>
<path d="M137.797 180.4H159.156V279.425H137.797V180.4ZM148.475 53.538C96.0767 52.0356 53.1431 95.5389 53.1431 149.417C53.1431 177.143 64.5271 202.088 82.7113 219.583C98.6902 234.955 108.852 256.85 108.852 279.425H131.076V180.4H114.972C102.387 180.4 92.1507 170.161 92.1507 157.578C92.1507 144.995 102.389 134.756 114.972 134.756C127.555 134.756 137.797 144.995 137.797 157.578V173.682H159.156V157.578C159.156 144.992 169.395 134.756 181.981 134.756C194.566 134.756 204.802 144.995 204.802 157.578C204.802 170.161 194.564 180.4 181.981 180.4H165.874V279.425H188.098C188.098 256.85 198.257 234.955 214.239 219.583C232.423 202.088 243.807 177.143 243.807 149.417C243.807 95.5361 200.874 52.0328 148.475 53.538ZM114.972 141.472C106.092 141.472 98.8688 148.697 98.8688 157.575C98.8688 166.456 106.094 173.679 114.972 173.679H131.079V157.575C131.079 148.694 123.853 141.472 114.972 141.472ZM181.981 173.679H165.874V157.575C165.874 148.694 173.1 141.472 181.981 141.472C190.862 141.472 198.084 148.697 198.084 157.575C198.084 166.456 190.859 173.679 181.981 173.679Z" fill="#706000"/>
</svg>
