<svg width="300" height="360" viewBox="0 0 300 360" fill="none" xmlns="http://www.w3.org/2000/svg">
<path d="M188.654 341.089H172.712L168.016 349.446C164.352 355.966 157.469 360 150.006 360H149.997C142.537 360 135.654 355.966 131.987 349.446L127.291 341.089H111.349V329.824H188.656L188.654 341.089Z" fill="#51514C"/>
<path d="M188.654 321.573H111.347V309.701H188.654V321.573ZM188.654 289.08H111.347V300.952H188.654V289.08Z" fill="#A7A79B"/>
<path d="M139.583 184.208H160.42V281.134H139.583V184.208ZM150 60.0371C98.8833 58.5666 57 101.147 57 153.883C57 181.021 68.1055 205.436 85.8449 222.561C101.433 237.607 111.347 259.038 111.347 281.134H133.027V184.208H117.317C105.039 184.208 95.0534 174.187 95.0534 161.871C95.0534 149.555 105.042 139.533 117.317 139.533C129.592 139.533 139.583 149.555 139.583 161.871V177.633H160.42V161.871C160.42 149.552 170.408 139.533 182.686 139.533C194.964 139.533 204.949 149.555 204.949 161.871C204.949 174.187 194.961 184.208 182.686 184.208H166.973V281.134H188.653C188.653 259.038 198.564 237.607 214.155 222.561C231.895 205.436 243 181.021 243 153.883C243 101.145 201.117 58.5638 150 60.0371ZM117.317 146.106C108.653 146.106 101.607 153.178 101.607 161.868C101.607 170.561 108.656 177.63 117.317 177.63H133.029V161.868C133.029 153.175 125.981 146.106 117.317 146.106ZM182.686 177.63H166.973V161.868C166.973 153.175 174.022 146.106 182.686 146.106C191.35 146.106 198.396 153.178 198.396 161.868C198.396 170.561 191.347 177.63 182.686 177.63Z" fill="#A7A79B"/>
</svg>
