<svg width="300" height="360" viewBox="0 0 300 360" fill="none" xmlns="http://www.w3.org/2000/svg">
<g clip-path="url(#clip0_105_208)">
<path d="M188.302 340.679H172.002L167.201 349.217C163.455 355.878 156.418 360 148.787 360H148.779C141.151 360 134.113 355.878 130.364 349.217L125.564 340.679H109.264V329.17H188.304L188.302 340.679Z" fill="#51514C"/>
<path d="M188.302 320.74H109.261V308.611H188.302V320.74ZM188.302 287.544H109.261V299.673H188.302V287.544Z" fill="#A7A79B"/>
<path d="M262.88 185.93L297.399 195.202L300 185.468L265.481 176.196L262.88 185.93Z" fill="#FFDA00"/>
<path d="M0 185.468L2.60112 195.202L37.1197 185.93L34.5186 176.196L0 185.468Z" fill="#FFDA00"/>
<path d="M262.88 114.849L265.481 124.583L300 115.308L297.399 105.574L262.88 114.849Z" fill="#FFDA00"/>
<path d="M0 115.308L34.5186 124.583L37.1197 114.849L2.60112 105.574L0 115.308Z" fill="#FFDA00"/>
<path d="M230.03 63.0227L237.138 70.149L262.408 44.8129L255.3 37.6866L230.03 63.0227Z" fill="#FFDA00"/>
<path d="M37.5947 44.8129L62.8624 70.149L69.9702 63.0227L44.7026 37.6866L37.5947 44.8129Z" fill="#FFDA00"/>
<path d="M175.74 34.6082L185.449 37.2161L194.7 2.60787L184.991 0L175.74 34.6082Z" fill="#FFDA00"/>
<path d="M105.303 2.60787L114.551 37.2161L124.263 34.6082L115.012 0L105.303 2.60787Z" fill="#FFDA00"/>
<path d="M138.131 180.4H159.435V279.425H138.131V180.4ZM148.781 53.538C96.5185 52.0356 53.6961 95.5389 53.6961 149.417C53.6961 177.143 65.0505 202.088 83.1877 219.583C99.1253 234.955 109.261 256.85 109.261 279.425H131.427V180.4H115.365C102.812 180.4 92.6027 170.161 92.6027 157.578C92.6027 144.995 102.815 134.756 115.365 134.756C127.916 134.756 138.131 144.995 138.131 157.578V173.682H159.435V157.578C159.435 144.992 169.647 134.756 182.2 134.756C194.753 134.756 204.963 144.995 204.963 157.578C204.963 170.161 194.75 180.4 182.2 180.4H166.135V279.425H188.301C188.301 256.85 198.434 234.955 214.375 219.583C232.512 202.088 243.866 177.143 243.866 149.417C243.866 95.5361 201.044 52.0328 148.781 53.538ZM115.365 141.472C106.507 141.472 99.3034 148.697 99.3034 157.575C99.3034 166.456 106.51 173.679 115.365 173.679H131.43V157.575C131.43 148.694 124.223 141.472 115.365 141.472ZM182.2 173.679H166.135V157.575C166.135 148.694 173.342 141.472 182.2 141.472C191.058 141.472 198.262 148.697 198.262 157.575C198.262 166.456 191.055 173.679 182.2 173.679Z" fill="#FFDA00"/>
</g>
<defs>
<clipPath id="clip0_105_208">
<rect width="300" height="360" fill="white"/>
</clipPath>
</defs>
</svg>
