<svg width="300" height="360" viewBox="0 0 300 360" fill="none" xmlns="http://www.w3.org/2000/svg">
<g clip-path="url(#clip0_105_207)">
<path d="M188.302 340.678H172.002L167.201 349.216C163.455 355.878 156.418 359.999 148.787 359.999H148.779C141.151 359.999 134.113 355.878 130.364 349.216L125.564 340.678H109.264V329.17H188.304L188.302 340.678Z" fill="#51514C"/>
<path d="M188.302 320.739H109.261V308.61H188.302V320.739ZM188.302 287.543H109.261V299.672H188.302V287.543Z" fill="#A7A79B"/>
<path d="M262.88 185.93L297.399 195.202L300 185.468L265.481 176.195L262.88 185.93Z" fill="#FFEB76"/>
<path d="M0 185.468L2.60112 195.202L37.1197 185.93L34.5186 176.195L0 185.468Z" fill="#FFEB76"/>
<path d="M262.88 114.848L265.481 124.582L300 115.307L297.399 105.573L262.88 114.848Z" fill="#FFEB76"/>
<path d="M0 115.307L34.5186 124.582L37.1197 114.848L2.60112 105.573L0 115.307Z" fill="#FFEB76"/>
<path d="M230.03 63.0225L237.138 70.1488L262.408 44.8128L255.3 37.6865L230.03 63.0225Z" fill="#FFEB76"/>
<path d="M37.5947 44.8128L62.8624 70.1488L69.9702 63.0225L44.7026 37.6865L37.5947 44.8128Z" fill="#FFEB76"/>
<path d="M175.74 34.6081L185.449 37.216L194.7 2.60787L184.991 0L175.74 34.6081Z" fill="#FFEB76"/>
<path d="M105.303 2.60787L114.551 37.216L124.263 34.6081L115.012 0L105.303 2.60787Z" fill="#FFEB76"/>
<path d="M138.131 180.399H159.435V279.424H138.131V180.399ZM148.781 53.5378C96.5185 52.0355 53.6961 95.5387 53.6961 149.417C53.6961 177.142 65.0505 202.087 83.1877 219.582C99.1253 234.955 109.261 256.849 109.261 279.424H131.427V180.399H115.365C102.812 180.399 92.6027 170.161 92.6027 157.578C92.6027 144.995 102.815 134.756 115.365 134.756C127.916 134.756 138.131 144.995 138.131 157.578V173.681H159.435V157.578C159.435 144.992 169.647 134.756 182.2 134.756C194.753 134.756 204.963 144.995 204.963 157.578C204.963 170.161 194.75 180.399 182.2 180.399H166.135V279.424H188.301C188.301 256.849 198.434 234.955 214.375 219.582C232.512 202.087 243.866 177.142 243.866 149.417C243.866 95.5358 201.044 52.0326 148.781 53.5378ZM115.365 141.471C106.507 141.471 99.3034 148.697 99.3034 157.575C99.3034 166.456 106.51 173.678 115.365 173.678H131.43V157.575C131.43 148.694 124.223 141.471 115.365 141.471ZM182.2 173.678H166.135V157.575C166.135 148.694 173.342 141.471 182.2 141.471C191.058 141.471 198.262 148.697 198.262 157.575C198.262 166.456 191.055 173.678 182.2 173.678Z" fill="#FFEB76"/>
</g>
<defs>
<clipPath id="clip0_105_207">
<rect width="300" height="360" fill="white"/>
</clipPath>
</defs>
</svg>
