<svg width="72" height="70" viewBox="0 0 72 70" fill="none" xmlns="http://www.w3.org/2000/svg">
<path d="M35.7377 70C55.3299 70 71.2126 54.33 71.2126 35C71.2126 15.67 55.3299 0 35.7377 0C16.1454 0 0.262695 15.67 0.262695 35C0.262695 54.33 16.1454 70 35.7377 70Z" fill="#FFDD67"/>
<path d="M22.1389 34.5334C25.4043 34.5334 28.0514 31.9218 28.0514 28.7001C28.0514 25.4785 25.4043 22.8668 22.1389 22.8668C18.8735 22.8668 16.2264 25.4785 16.2264 28.7001C16.2264 31.9218 18.8735 34.5334 22.1389 34.5334Z" fill="#664E27"/>
<path d="M49.3366 34.5334C52.602 34.5334 55.2491 31.9218 55.2491 28.7001C55.2491 25.4784 52.602 22.8668 49.3366 22.8668C46.0713 22.8668 43.4241 25.4784 43.4241 28.7001C43.4241 31.9218 46.0713 34.5334 49.3366 34.5334Z" fill="#664E27"/>
<path d="M25.0956 53.2003C31.9541 47.6003 39.5221 47.6003 46.3806 53.2003C47.2083 53.9003 47.9178 52.7337 47.3265 51.6837C45.1981 47.717 41.0593 44.1003 35.7381 44.1003C30.4168 44.1003 26.1598 47.717 24.1496 51.6837C23.5583 52.7337 24.2678 53.9003 25.0956 53.2003Z" fill="#664E27"/>
</svg>
