<svg width="740" height="540" viewBox="0 0 740 540" fill="none" xmlns="http://www.w3.org/2000/svg">
<g filter="url(#filter0_f_105_73)">
<path d="M41.7026 20.0281V45.0126H39.7347V31.9723H37.5173V43.748H35.5771V20.5621H37.5173V30.1456H39.7347V20.0281H41.7026ZM20.5821 38.6892V22.7261H22.2728V28.8247H24.7397V22.7261H26.4304V38.6892H20.5821ZM22.2728 36.8906H24.7397V30.5952H22.2728V36.8906ZM27.8994 38.6892V22.7261H29.5902V28.8247H32.0293V22.7261H33.7478V38.6892H27.8994ZM29.5902 36.8906H32.0293V30.5952H29.5902V36.8906Z" fill="black"/>
<path d="M67.0639 31.9161V33.7429H44.6407V31.9161H53.926V26.8574H56.0602V31.9161H67.0639ZM47.0244 38.4363V36.6095H64.2091V45.0126H61.9917V38.4363H47.0244ZM47.3015 23.2039V21.4052H64.2091V23.2882C64.1952 25.2133 64.1952 27.3492 63.5993 30.2018L61.4096 29.977C62.0471 27.1806 62.0471 25.1712 62.0471 23.2882V23.2039H47.3015Z" fill="black"/>
<path d="M88.2122 20.0281V30.3423H92.3421V32.1691H88.2122V45.0126H86.0503V20.0281H88.2122ZM69.0042 25.8738V24.047H75.3514V20.3372H77.5134V24.047H83.6666V25.8738H69.0042ZM70.4177 33.6867C70.4039 30.3142 72.9539 27.9535 76.4601 27.9535C79.9386 27.9535 82.4748 30.3142 82.5025 33.6867C82.4748 37.0732 79.9386 39.4199 76.4601 39.4199C72.9539 39.4199 70.4039 37.0732 70.4177 33.6867ZM72.4965 33.6867C72.4827 35.9631 74.1596 37.5651 76.4601 37.537C78.7329 37.5651 80.396 35.9631 80.4237 33.6867C80.396 31.4243 78.7329 29.7943 76.4601 29.8083C74.1596 29.7943 72.4827 31.4243 72.4965 33.6867Z" fill="black"/>
<path d="M114.765 20.0281V45.0126H112.687V20.0281H114.765ZM93.7003 38.0147C99.0497 34.7968 101.738 30.2861 102.154 25.0587H94.7535V23.232H104.316C104.316 25.6911 103.928 28.0659 103.083 30.2861H107.503V20.7026H109.582V43.748H107.503V32.0848H102.279C100.796 34.9935 98.4122 37.5651 94.9753 39.6167L93.7003 38.0147Z" fill="black"/>
<path d="M133.89 24.6372C133.89 27.8832 136.357 30.9887 139.96 32.2534L138.824 33.9958C136.052 32.9841 133.904 30.8903 132.851 28.3188C131.784 31.1854 129.497 33.49 126.573 34.586L125.437 32.8436C129.068 31.5227 131.701 28.1923 131.701 24.6653V23.5692H126.129V21.7706H139.406V23.5692H133.89V24.6372ZM129.178 38.1552V36.3285H145.753V45.0126H143.564V38.1552H129.178ZM138.63 28.4312V26.5764H143.564V20.0281H145.753V35.0076H143.564V28.4312H138.63Z" fill="black"/>
<path d="M170.2 20.0281V38.886H168.038V20.0281H170.2ZM150.216 24.9463V23.1477H156.674V20H158.864V23.1477H165.322V24.9463H150.216ZM151.74 30.9606C151.713 28.1221 154.166 26.2953 157.783 26.2953C161.358 26.2953 163.811 28.1221 163.825 30.9606C163.811 33.8132 161.358 35.5837 157.783 35.5697C154.166 35.5837 151.713 33.8132 151.74 30.9606ZM153.819 30.9606C153.791 32.7171 155.385 33.8553 157.783 33.8272C160.125 33.8553 161.732 32.7171 161.746 30.9606C161.732 29.176 160.125 28.0659 157.783 28.0378C155.385 28.0659 153.791 29.176 153.819 30.9606ZM154.29 44.4787V37.2559H156.452V42.6238H170.976V44.4787H154.29Z" fill="black"/>
<path d="M188.105 21.9673C191.736 21.9813 194.314 25.3679 194.342 30.6796C194.314 36.0053 191.736 39.3778 188.105 39.3637C184.447 39.3778 181.883 36.0053 181.897 30.6796C181.883 25.3679 184.447 21.9813 188.105 21.9673ZM183.948 30.6796C183.962 34.7406 185.666 37.4105 188.105 37.3964C190.572 37.4105 192.235 34.7406 192.235 30.6796C192.235 26.6185 190.572 23.9486 188.105 23.9346C185.666 23.9486 183.962 26.6185 183.948 30.6796ZM198.416 45.0126V20.0281H200.578V30.0051H204.708V31.9161H200.578V45.0126H198.416Z" fill="black"/>
<path d="M226.355 20.0281V45.0689H224.166V20.0281H226.355ZM206.953 30.6796C206.967 25.3679 209.572 21.9813 213.245 21.9673C216.904 21.9813 219.551 25.3679 219.537 30.6796C219.551 36.0053 216.904 39.3778 213.245 39.3637C209.572 39.3778 206.967 36.0053 206.953 30.6796ZM209.06 30.6796C209.06 34.7406 210.778 37.4105 213.245 37.3964C215.726 37.4105 217.43 34.7406 217.43 30.6796C217.43 26.6185 215.726 23.9486 213.245 23.9346C210.778 23.9486 209.06 26.6185 209.06 30.6796Z" fill="black"/>
<path d="M250.885 20.0281V45.0689H248.695V20.0281H250.885ZM232.176 38.8578V22.417H243.9V24.2718H234.365V36.9468C239.161 36.9468 242.306 36.8062 246.007 36.1318L246.228 37.9866C242.403 38.6752 239.161 38.8438 234.171 38.8578H232.176Z" fill="black"/>
<path d="M261.722 21.9673C265.076 21.9813 267.501 24.9042 267.834 29.5835H273.364V20.0281H275.526V45.0689H273.364V31.4103H267.862C267.626 36.3144 265.159 39.3778 261.722 39.3637C258.078 39.3778 255.528 36.0053 255.541 30.6796C255.528 25.3679 258.078 21.9813 261.722 21.9673ZM257.62 30.6796C257.634 34.7406 259.297 37.4105 261.722 37.3964C264.134 37.4105 265.825 34.7406 265.825 30.6796C265.825 26.6185 264.134 23.9486 261.722 23.9346C259.297 23.9486 257.634 26.6185 257.62 30.6796Z" fill="black"/>
<path d="M40.4276 53.9738V72.2415H38.2657V53.9738H40.4276ZM20.6652 61.843C20.6514 58.2457 23.4369 55.7303 27.1233 55.7163C30.8097 55.7303 33.5676 58.2457 33.5815 61.843C33.5676 65.4825 30.8097 68.0118 27.1233 67.9978C23.4369 68.0118 20.6514 65.4825 20.6652 61.843ZM22.7994 61.843C22.7717 64.3302 24.6288 66.0586 27.1233 66.0586C29.5763 66.0586 31.4472 64.3302 31.4472 61.843C31.4472 59.3979 29.5763 57.6555 27.1233 57.6555C24.6288 57.6555 22.7717 59.3979 22.7994 61.843ZM24.5179 78.3963V70.3866H26.6799V76.5414H41.2037V78.3963H24.5179Z" fill="black"/>
<path d="M65.0406 70.4709V78.9865H62.8509V72.3258H48.4657V70.4709H65.0406ZM44.6961 67.1828C48.3132 65.9602 50.8632 62.8828 50.8771 59.4541V58.8358H45.3059V57.0091H50.8771V53.8333H53.0667V57.0091H58.5825V58.8358H53.0113V59.4541C53.0251 62.6861 55.6167 65.5668 59.2477 66.705L58.2499 68.4756C55.3673 67.52 53.0944 65.5527 51.9857 63.0234C50.9325 65.7635 48.6735 67.8994 45.7771 68.9252L44.6961 67.1828ZM57.7787 63.1639V61.309H62.8509V53.9457H65.0406V69.2063H62.8509V63.1639H57.7787Z" fill="black"/>
<path d="M88.2122 53.9457V64.2599H92.3421V66.0867H88.2122V78.9303H86.0503V53.9457H88.2122ZM69.0042 59.7914V57.9646H75.3514V54.2549H77.5134V57.9646H83.6666V59.7914H69.0042ZM70.4177 67.6043C70.4039 64.2318 72.9539 61.8711 76.4601 61.8711C79.9386 61.8711 82.4748 64.2318 82.5025 67.6043C82.4748 70.9909 79.9386 73.3376 76.4601 73.3376C72.9539 73.3376 70.4039 70.9909 70.4177 67.6043ZM72.4965 67.6043C72.4827 69.8808 74.1596 71.4827 76.4601 71.4546C78.7329 71.4827 80.396 69.8808 80.4237 67.6043C80.396 65.3419 78.7329 63.7119 76.4601 63.726C74.1596 63.7119 72.4827 65.3419 72.4965 67.6043Z" fill="black"/>
<path d="M113.601 61.5338V63.3044H96.7214V54.8732H98.8834V61.5338H113.601ZM93.6448 68.5037V66.705H116.207V68.5037H93.6448ZM96.5829 78.312V71.0611H98.7448V76.4852H113.74V78.312H96.5829Z" fill="black"/>
<path d="M137.882 56.3346V58.1895H128.763V70.9206C133.211 70.9347 136.135 70.7801 139.545 70.1056L139.822 71.9324C136.191 72.635 133.184 72.8036 128.458 72.8036H126.573V56.3346H137.882ZM136.413 64.8782V63.0515H143.591V53.9457H145.781V78.9865H143.591V64.8782H136.413Z" fill="black"/>
<path d="M162.689 56.4189V72.6631H151.297V56.4189H162.689ZM153.431 70.8644H160.554V58.1895H153.431V70.8644ZM167.983 78.9865V53.9457H170.172V78.9865H167.983Z" fill="black"/>
<path d="M202.601 53.9457V78.9303H200.495V53.9457H202.601ZM182.479 72.916V57.0372H191.764V58.864H184.585V71.0611C188.147 71.033 190.392 70.9066 193.039 70.3023L193.261 72.1853C190.406 72.7755 187.994 72.9019 184.031 72.916H182.479ZM190.101 65.356V63.5011H195.478V54.564H197.557V77.6375H195.478V65.356H190.101Z" fill="black"/>
<path d="M226.355 53.9457V78.9865H224.166V53.9457H226.355ZM206.953 64.5972C206.967 59.2855 209.572 55.899 213.245 55.8849C216.904 55.899 219.551 59.2855 219.537 64.5972C219.551 69.9229 216.904 73.2954 213.245 73.2814C209.572 73.2954 206.967 69.9229 206.953 64.5972ZM209.06 64.5972C209.06 68.6582 210.778 71.3281 213.245 71.3141C215.726 71.3281 217.43 68.6582 217.43 64.5972C217.43 60.5361 215.726 57.8663 213.245 57.8522C210.778 57.8663 209.06 60.5361 209.06 64.5972Z" fill="black"/>
<path d="M250.996 53.9457V78.9865H248.834V65.2155H243.623V63.3887H248.834V53.9457H250.996ZM231.705 72.9441V56.2503H243.207V58.077H233.894V63.2763H242.126V65.075H233.894V71.1173C238.412 71.1033 241.323 70.9768 244.704 70.3585L244.953 72.1853C241.364 72.7755 238.357 72.9441 233.589 72.9441H231.705Z" fill="black"/>
<path d="M262.083 54.8732C265.769 54.8872 268.444 57.1637 268.458 60.4097C268.444 63.6698 265.769 65.9181 262.083 65.9181C258.355 65.9181 255.666 63.6698 255.68 60.4097C255.666 57.1637 258.355 54.8872 262.083 54.8732ZM257.814 60.4097C257.787 62.6018 259.602 64.1194 262.083 64.1194C264.522 64.1194 266.351 62.6018 266.351 60.4097C266.351 58.2457 264.522 56.714 262.083 56.728C259.602 56.714 257.787 58.2457 257.814 60.4097ZM259.422 69.7683V67.9978H275.442V74.0121H261.612V76.8225H276.329V78.593H259.477V72.3539H273.281V69.7683H259.422ZM273.281 66.7893V53.9457H275.442V66.7893H273.281Z" fill="black"/>
<path d="M307.622 53.9457V72.5506H305.46V62.8547H302.273V68.1383H295.704V55.8006H297.561V60.1848H300.471V55.8006H302.273V61.028H305.46V53.9457H307.622ZM287.416 68.1383V55.8006H289.273V60.1848H292.295V55.8006H294.152V68.1383H287.416ZM289.273 66.3115H292.295V61.8992H289.273V66.3115ZM290.798 78.3963V70.5272H292.988V76.5414H308.287V78.3963H290.798ZM297.561 66.3115H300.471V61.8992H297.561V66.3115Z" fill="black"/>
<path d="M330.544 53.9738V62.2083H334.259V64.0632H330.544V72.6912H328.383V53.9738H330.544ZM311.336 58.8358V57.0372H317.6V53.9738H319.762V57.0372H326.027V58.8358H311.336ZM312.75 64.8782C312.736 62.0397 315.12 60.2129 318.681 60.2129C322.202 60.2129 324.585 62.0397 324.613 64.8782C324.585 67.6886 322.202 69.5014 318.681 69.4873C315.12 69.5014 312.736 67.6886 312.75 64.8782ZM314.829 64.8782C314.815 66.6347 316.353 67.7729 318.681 67.7448C320.982 67.7729 322.534 66.6347 322.562 64.8782C322.534 63.0936 320.982 61.9413 318.681 61.9554C316.353 61.9413 314.815 63.0936 314.829 64.8782ZM315.134 78.3963V71.2017H317.268V76.5414H331.681V78.3963H315.134Z" fill="black"/>
<path d="M351.194 60.6626C351.194 65.0609 354.063 69.5997 357.569 71.3422L356.238 73.1127C353.522 71.6794 351.249 68.7144 350.154 65.2436C349.06 68.9252 346.731 72.0869 343.96 73.5905L342.574 71.8199C346.177 70.0213 349.032 65.2295 349.06 60.6626V56.1097H351.194V60.6626ZM359.842 78.9303V53.9457H362.004V64.0913H366.133V66.0024H362.004V78.9303H359.842Z" fill="black"/>
<path d="M387.781 53.9457V66.9017H385.646V53.9457H387.781ZM367.63 64.9063C371.344 63.5995 373.977 60.2551 373.977 56.5875V54.6764H376.195V56.5875C376.167 60.1146 378.828 63.2341 382.487 64.4567L381.406 66.171C378.509 65.1733 376.223 63.0796 375.114 60.3816C374.005 63.2903 371.691 65.5808 368.767 66.6488L367.63 64.9063ZM371.788 69.937V68.1664H387.808V74.1526H373.977V76.8506H388.695V78.6492H371.843V72.4382H385.646V69.937H371.788Z" fill="black"/>
<path d="M26.6799 89.8026C30.3108 89.8166 32.8885 93.2031 32.9163 98.5148C32.8885 103.841 30.3108 107.213 26.6799 107.199C23.0212 107.213 20.4573 103.841 20.4712 98.5148C20.4573 93.2031 23.0212 89.8166 26.6799 89.8026ZM22.5223 98.5148C22.5361 102.576 24.2407 105.246 26.6799 105.232C29.1467 105.246 30.8097 102.576 30.8097 98.5148C30.8097 94.4538 29.1467 91.7839 26.6799 91.7698C24.2407 91.7839 22.5361 94.4538 22.5223 98.5148ZM36.9907 112.848V87.8634H39.1526V97.8403H43.2825V99.7514H39.1526V112.848H36.9907Z" fill="black"/>
<path d="M67.1471 102.393V104.22H56.864V112.848H54.7298V104.22H44.5852V102.393H67.1471ZM47.4955 98.9926V89.2686H64.2091V98.9926H47.4955ZM49.6298 97.2501H62.0471V91.0672H49.6298V97.2501Z" fill="black"/>
<path d="M84.3318 89.6901C88.1984 89.7042 90.9424 92.093 90.9562 95.5639C90.9424 99.0488 88.1984 101.424 84.3318 101.438C80.4375 101.424 77.6658 99.0488 77.6797 95.5639C77.6658 92.093 80.4375 89.7042 84.3318 89.6901ZM76.4047 105.513C80.9503 105.527 87.2283 105.485 92.6747 104.67L92.841 106.3C87.2006 107.368 81.1443 107.396 76.7096 107.396L76.4047 105.513ZM79.8139 95.5639C79.8 97.8965 81.6987 99.4985 84.3318 99.4985C86.9372 99.4985 88.8359 97.8965 88.822 95.5639C88.8359 93.2453 86.9372 91.6293 84.3318 91.6293C81.6987 91.6293 79.8 93.2453 79.8139 95.5639ZM94.31 112.904V87.8634H96.472V112.904H94.31Z" fill="black"/>
<path d="M113.629 90.3365V106.581H102.237V90.3365H113.629ZM104.371 104.782H111.495V92.1071H104.371V104.782ZM118.923 112.904V87.8634H121.113V112.904H118.923Z" fill="black"/>
<path d="M145.227 99.5828V101.381H137.604V107.845H147.888V109.7H125.326V107.845H135.47V101.381H128.208V89.915H144.977V91.7136H130.398V99.5828H145.227Z" fill="black"/>
<path d="M154.761 102.534V105.653H159.252V102.534H161.275V112.511H152.71V102.534H154.761ZM150.244 94.7208C150.23 91.3061 152.891 88.9875 156.646 88.9875C159.958 88.9875 162.467 90.8846 162.938 93.7652H168.093V87.8634H170.283V101.1H168.093V95.592H162.952C162.522 98.5429 159.986 100.482 156.646 100.482C152.891 100.482 150.23 98.1495 150.244 94.7208ZM152.322 94.7208C152.322 97.0113 154.11 98.6413 156.646 98.6553C159.127 98.6413 160.915 97.0113 160.915 94.7208C160.915 92.4443 159.127 90.8424 156.646 90.8424C154.11 90.8424 152.322 92.4443 152.322 94.7208ZM154.761 110.768H159.252V107.34H154.761V110.768ZM161.608 111.021C164.573 109.771 166.139 107.03 166.153 104.501V102.365H168.315V104.501C168.287 107.129 169.854 109.897 172.861 111.021L171.724 112.707C169.452 111.794 167.969 110.023 167.206 107.958C166.43 109.995 164.92 111.766 162.744 112.707L161.608 111.021Z" fill="black"/>
<path d="M194.314 95.4515V97.222H177.434V88.7908H179.596V95.4515H194.314ZM174.358 102.421V100.623H196.919V102.421H174.358ZM177.296 112.23V104.979H179.458V110.403H194.453V112.23H177.296Z" fill="black"/>
<path d="M225.635 88.9594V90.5614C225.635 92.2476 225.635 94.4116 225.08 97.222H228.6V98.9926H206.038V97.222H222.891C223.459 94.4397 223.486 92.4022 223.473 90.7581H208.893V88.9594H225.635ZM208.727 103.293V101.522H225.718V107.817H210.944V110.768H226.355V112.567H208.755V106.075H223.556V103.293H208.727Z" fill="black"/>
<path d="M238.911 95.5358C238.883 99.5406 241.738 103.953 245.314 105.681L244.067 107.424C241.295 106.047 238.953 103.096 237.844 99.7092C236.708 103.377 234.241 106.609 231.483 108.042L230.152 106.3C233.7 104.543 236.749 99.7936 236.777 95.5358V92.2757H231.039V90.4489H244.455V92.2757H238.911V95.5358ZM247.476 112.848V87.8634H249.638V97.9808H253.768V99.8638H249.638V112.848H247.476Z" fill="black"/>
<path d="M40.3999 155.699V180.739H38.2103V155.699H40.3999ZM20.9978 166.35C21.0117 161.038 23.6171 157.652 27.2896 157.638C30.9483 157.652 33.5953 161.038 33.5815 166.35C33.5953 171.676 30.9483 175.048 27.2896 175.034C23.6171 175.048 21.0117 171.676 20.9978 166.35ZM23.1043 166.35C23.1043 170.411 24.8228 173.081 27.2896 173.067C29.7703 173.081 31.475 170.411 31.475 166.35C31.475 162.289 29.7703 159.619 27.2896 159.605C24.8228 159.619 23.1043 162.289 23.1043 166.35Z" fill="black"/>
<path d="M65.0129 155.699V180.683H62.8509V167.587H56.9749V165.76H62.8509V155.699H65.0129ZM44.6407 174.163C51.3067 170.889 54.3971 166.069 54.8406 160.223H45.7216V158.425H57.0303C57.0164 165.507 54.0645 171.788 45.8325 175.934L44.6407 174.163Z" fill="black"/>
<path d="M89.0715 163.287V165.057H72.1916V156.626H74.3536V163.287H89.0715ZM69.115 170.257V168.458H91.6769V170.257H69.115ZM72.0531 180.065V172.814H74.215V178.238H89.2101V180.065H72.0531Z" fill="black"/>
<path d="M121.113 155.699V180.739H118.923V155.699H121.113ZM101.711 166.35C101.724 161.038 104.33 157.652 108.002 157.638C111.661 157.652 114.308 161.038 114.294 166.35C114.308 171.676 111.661 175.048 108.002 175.034C104.33 175.048 101.724 171.676 101.711 166.35ZM103.817 166.35C103.817 170.411 105.536 173.081 108.002 173.067C110.483 173.081 112.188 170.411 112.188 166.35C112.188 162.289 110.483 159.619 108.002 159.605C105.536 159.619 103.817 162.289 103.817 166.35Z" fill="black"/>
<path d="M145.753 155.699V169.442H143.564V162.472H138.879V160.645H143.564V155.699H145.753ZM126.296 158.593V156.879H137.3V163.062H128.541V166.041C132.712 166.041 135.734 165.929 139.351 165.254L139.545 167.025C135.761 167.671 132.601 167.811 128.208 167.811H126.351V161.432H135.138V158.593H126.296ZM129.012 172.589V170.875H136.607V168.458H138.769V170.875H146.308V172.589H129.012ZM130.731 177.114C130.731 174.852 133.308 173.615 137.66 173.629C142.011 173.615 144.589 174.852 144.589 177.114C144.589 179.418 142.011 180.627 137.66 180.627C133.308 180.627 130.731 179.418 130.731 177.114ZM132.865 177.114C132.851 178.365 134.597 179.039 137.66 179.053C140.709 179.039 142.483 178.365 142.483 177.114C142.483 175.948 140.709 175.203 137.66 175.203C134.597 175.203 132.851 175.948 132.865 177.114Z" fill="black"/>
<path d="M170.948 155.699V180.683H168.87V155.699H170.948ZM149.883 173.685C155.233 170.467 157.921 165.957 158.337 160.729H150.936V158.902H160.499C160.499 161.362 160.111 163.736 159.265 165.957H163.686V156.373H165.765V179.418H163.686V167.755H158.462C156.979 170.664 154.595 173.236 151.158 175.287L149.883 173.685Z" fill="black"/>
<path d="M193.954 157.975V169.47H182.562V157.975H193.954ZM184.696 167.699H191.847V159.774H184.696V167.699ZM185.361 180.149V172.28H187.496V178.294H201.909V180.149H185.361ZM198.61 174.023V155.699H200.772V163.315H204.486V165.17H200.772V174.023H198.61Z" fill="black"/>
<path d="M228.517 166.21V167.98H206.038V166.21H228.517ZM208.755 171.943V170.228H225.607V176.018H210.972V178.603H226.355V180.402H208.81V174.36H223.473V171.943H208.755ZM209.032 164.158V156.57H225.579V158.34H211.222V162.359H225.829V164.158H209.032Z" fill="black"/>
<path d="M250.331 158.228V160.729C250.303 163.793 250.303 167.221 249.416 172.252L247.199 171.999C248.127 167.221 248.127 163.722 248.141 160.729V160.055H232.952V158.228H250.331ZM230.568 177.142V175.315H239.382V166.378H241.517V175.315H253.019V177.142H230.568Z" fill="black"/>
<path d="M282.649 155.699V180.739H280.459V166.631H275.054V164.804H280.459V155.699H282.649ZM262 174.023C265.575 172.266 268.555 167.559 268.569 163.118V160.111H262.942V158.284H276.413V160.111H270.758V163.118C270.772 167.278 273.71 171.802 277.3 173.46L275.997 175.231C273.184 173.826 270.814 170.805 269.691 167.32C268.582 171.029 266.143 174.247 263.33 175.737L262 174.023Z" fill="black"/>
<path d="M307.151 155.699V180.683H304.989V167.587H299.113V165.76H304.989V155.699H307.151ZM286.779 174.163C293.445 170.889 296.535 166.069 296.979 160.223H287.86V158.425H299.168C299.155 165.507 296.203 171.788 287.971 175.934L286.779 174.163Z" fill="black"/>
<path d="M331.21 163.287V165.057H314.33V156.626H316.492V163.287H331.21ZM311.253 170.257V168.458H333.815V170.257H311.253ZM314.191 180.065V172.814H316.353V178.238H331.348V180.065H314.191Z" fill="black"/>
<path d="M363.362 155.699V180.739H361.172V166.631H355.767V164.804H361.172V155.699H363.362ZM342.712 174.023C346.288 172.266 349.267 167.559 349.281 163.118V160.111H343.655V158.284H357.125V160.111H351.471V163.118C351.485 167.278 354.423 171.802 358.012 173.46L356.71 175.231C353.896 173.826 351.526 170.805 350.404 167.32C349.295 171.029 346.856 174.247 344.043 175.737L342.712 174.023Z" fill="black"/>
<path d="M387.892 155.699V169.442H385.702V162.472H381.018V160.645H385.702V155.699H387.892ZM368.434 158.593V156.879H379.438V163.062H370.679V166.041C374.851 166.041 377.872 165.929 381.489 165.254L381.683 167.025C377.899 167.671 374.74 167.811 370.346 167.811H368.489V161.432H377.276V158.593H368.434ZM371.15 172.589V170.875H378.745V168.458H380.907V170.875H388.446V172.589H371.15ZM372.869 177.114C372.869 174.852 375.446 173.615 379.798 173.629C384.15 173.615 386.727 174.852 386.727 177.114C386.727 179.418 384.15 180.627 379.798 180.627C375.446 180.627 372.869 179.418 372.869 177.114ZM375.003 177.114C374.989 178.365 376.735 179.039 379.798 179.053C382.847 179.039 384.621 178.365 384.621 177.114C384.621 175.948 382.847 175.203 379.798 175.203C376.735 175.203 374.989 175.948 375.003 177.114Z" fill="black"/>
<path d="M413.087 155.699V180.683H411.008V155.699H413.087ZM392.021 173.685C397.371 170.467 400.059 165.957 400.475 160.729H393.075V158.902H402.637C402.637 161.362 402.249 163.736 401.404 165.957H405.825V156.373H407.903V179.418H405.825V167.755H400.6C399.117 170.664 396.733 173.236 393.296 175.287L392.021 173.685Z" fill="black"/>
<path d="M436.092 157.975V169.47H424.7V157.975H436.092ZM426.834 167.699H433.985V159.774H426.834V167.699ZM427.5 180.149V172.28H429.634V178.294H444.047V180.149H427.5ZM440.748 174.023V155.699H442.91V163.315H446.624V165.17H442.91V174.023H440.748Z" fill="black"/>
<path d="M470.655 166.21V167.98H448.177V166.21H470.655ZM450.893 171.943V170.228H467.745V176.018H453.11V178.603H468.493V180.402H450.948V174.36H465.611V171.943H450.893ZM451.17 164.158V156.57H467.717V158.34H453.36V162.359H467.967V164.158H451.17Z" fill="black"/>
<path d="M492.469 158.228V160.729C492.441 163.793 492.441 167.221 491.554 172.252L489.337 171.999C490.265 167.221 490.265 163.722 490.279 160.729V160.055H475.09V158.228H492.469ZM472.706 177.142V175.315H481.521V166.378H483.655V175.315H495.157V177.142H472.706Z" fill="black"/>
<path d="M526.921 175.624V177.479H504.36V175.624H509.958V168.894C507.852 167.783 506.577 165.985 506.577 163.708C506.577 159.844 510.319 157.301 515.585 157.272C520.851 157.301 524.593 159.844 524.593 163.708C524.593 165.943 523.36 167.713 521.323 168.823V175.624H526.921ZM508.683 163.708C508.67 166.505 511.538 168.374 515.585 168.374C519.59 168.374 522.487 166.505 522.487 163.708C522.487 160.912 519.59 159.071 515.585 159.099C511.538 159.071 508.67 160.912 508.683 163.708ZM512.093 175.624H519.133V169.68C518.066 169.961 516.874 170.116 515.585 170.116C514.324 170.116 513.146 169.976 512.093 169.694V175.624Z" fill="black"/>
<path d="M549.317 155.727V174.191H547.127V165.282H541.667V163.427H547.127V155.727H549.317ZM529.277 169.498C534.946 167.601 538.895 164.003 539.394 159.493H530.525V157.638H541.778C541.75 164.06 537.218 168.95 530.22 171.268L529.277 169.498ZM533.629 180.149V172.308H535.846V178.294H549.954V180.149H533.629Z" fill="black"/>
<path d="M580.859 155.699V180.739H578.67V155.699H580.859ZM561.457 166.35C561.471 161.038 564.076 157.652 567.749 157.638C571.408 157.652 574.055 161.038 574.041 166.35C574.055 171.676 571.408 175.048 567.749 175.034C564.076 175.048 561.471 171.676 561.457 166.35ZM563.564 166.35C563.564 170.411 565.282 173.081 567.749 173.067C570.23 173.081 571.934 170.411 571.934 166.35C571.934 162.289 570.23 159.619 567.749 159.605C565.282 159.619 563.564 162.289 563.564 166.35Z" fill="black"/>
<path d="M605.5 155.699V168.542H603.31V163.568H597.85V161.741H603.31V155.699H605.5ZM585.46 167.249C591.364 165.802 594.912 162.781 595.341 158.762H586.735V156.935H597.656C597.656 163.146 593.332 167.263 586.236 169.076L585.46 167.249ZM589.535 171.409V169.61H605.5V175.709H591.752V178.632H606.331V180.458H589.59V174.023H603.31V171.409H589.535Z" fill="black"/>
<path d="M632.164 175.737V177.592H609.602V175.737H619.747V171.015H612.429V163.315H627.175V159.38H612.374V157.553H629.309V165.113H614.591V169.189H629.891V171.015H621.881V175.737H632.164Z" fill="black"/>
<path d="M649.626 169.976V175.709H655.419V169.976H657.581V175.709H663.817V177.564H641.255V175.709H647.464V169.976H649.626ZM642.364 168.43C646.535 167.713 651.372 164.242 651.372 160.223V159.774H643.112V157.947H661.877V159.774H653.617V160.223C653.631 164.242 658.482 167.657 662.736 168.345L661.849 170.116C658.08 169.343 654.102 166.912 652.522 163.455C650.942 166.94 646.979 169.427 643.279 170.2L642.364 168.43Z" fill="black"/>
<path d="M686.213 155.727V174.191H684.023V165.282H678.563V163.427H684.023V155.727H686.213ZM666.173 169.498C671.841 167.601 675.791 164.003 676.29 159.493H667.42V157.638H678.674C678.646 164.06 674.114 168.95 667.115 171.268L666.173 169.498ZM670.525 180.149V172.308H672.742V178.294H686.85V180.149H670.525Z" fill="black"/>
<path d="M720 175.512V177.367H697.438V175.512H720ZM698.547 169.385C702.718 168.669 707.555 165.184 707.555 161.207V160.055H699.295V158.228H718.06V160.055H709.8V161.207C709.814 165.184 714.664 168.584 718.919 169.301L718.032 171.043C714.263 170.313 710.285 167.868 708.705 164.411C707.125 167.882 703.162 170.383 699.461 171.156L698.547 169.385Z" fill="black"/>
<path d="M40.5108 189.616V202.46H38.3211V197.485H32.8608V195.659H38.3211V189.616H40.5108ZM20.4712 201.167C26.375 199.72 29.9228 196.698 30.3524 192.68H21.7462V190.853H32.6668C32.6668 197.064 28.3429 201.181 21.2473 202.994L20.4712 201.167ZM24.5456 205.326V203.528H40.5108V209.626H26.763V212.549H41.3423V214.376H24.6011V207.94H38.3211V205.326H24.5456Z" fill="black"/>
<path d="M67.1748 209.654V211.509H44.6129V209.654H54.7575V204.933H47.4401V197.232H62.1857V193.298H47.3847V191.471H64.3199V199.031H49.6021V203.106H64.902V204.933H56.8917V209.654H67.1748Z" fill="black"/>
<path d="M95.6959 192.286V194.787C95.6959 197.935 95.6959 201.49 94.7812 206.928L92.5639 206.704C93.5617 201.589 93.5617 197.851 93.5617 194.787V194.113H78.7052V192.286H95.6959ZM76.2661 210.919V209.092H98.7171V210.919H76.2661Z" fill="black"/>
<path d="M121.14 189.616V214.657H118.978V189.616H121.14ZM102.182 193.776V191.949H113.657V200.83H104.455V206.732C108.543 206.746 112.188 206.549 116.595 205.832L116.816 207.687C112.285 208.404 108.543 208.587 104.288 208.587H102.237V199.031H111.467V193.776H102.182Z" fill="black"/>
<path d="M145.088 192.146V194.647C145.06 197.71 145.06 201.139 144.173 206.17L141.956 205.917C142.885 201.139 142.885 197.64 142.898 194.647V193.972H127.709V192.146H145.088ZM125.326 211.06V209.233H134.14V200.296H136.274V209.233H147.777V211.06H125.326Z" fill="black"/>
<path d="M169.368 192.146V208.249H158.004V192.146H169.368ZM160.111 206.451H167.206V193.916H160.111V206.451ZM173.886 214.601V189.616H176.048V199.593H180.178V201.504H176.048V214.601H173.886Z" fill="black"/>
<path d="M190.323 197.289C190.337 201.532 193.372 205.846 197.003 207.434L195.783 209.177C192.9 207.856 190.42 204.975 189.269 201.518C188.119 205.186 185.625 208.362 182.811 209.795L181.509 208.053C185.043 206.338 188.119 201.617 188.133 197.289V194.029H182.312V192.202H196.199V194.029H190.323V197.289ZM199.636 214.601V189.616H201.825V214.601H199.636Z" fill="black"/>
<path d="M218.483 191.499V202.544H207.092V191.499H218.483ZM209.17 207.547V205.776H225.302V214.657H223.14V207.547H209.17ZM209.226 200.745H216.377V193.27H209.226V200.745ZM223.14 204.427V189.616H225.302V196.136H229.016V197.991H225.302V204.427H223.14Z" fill="black"/>
<path d="M241.794 191.246C246.935 191.26 250.802 193.986 250.802 198.104C250.802 202.263 246.935 204.989 241.794 204.961C236.652 204.989 232.786 202.263 232.786 198.104C232.786 193.986 236.652 191.26 241.794 191.246ZM230.568 211.285V209.43H253.13V211.285H230.568ZM234.864 198.104C234.837 201.139 237.816 203.162 241.794 203.162C245.743 203.162 248.695 201.139 248.695 198.104C248.695 195.111 245.743 193.031 241.794 193.045C237.816 193.031 234.837 195.111 234.864 198.104Z" fill="black"/>
<path d="M277.66 209.654V211.509H255.098V209.654H265.243V204.933H257.925V197.232H272.671V193.298H257.87V191.471H274.805V199.031H260.087V203.106H275.387V204.933H267.377V209.654H277.66Z" fill="black"/>
<path d="M307.068 189.616V214.657H304.878V189.616H307.068ZM287.666 200.268C287.68 194.956 290.285 191.569 293.958 191.555C297.616 191.569 300.263 194.956 300.249 200.268C300.263 205.593 297.616 208.966 293.958 208.952C290.285 208.966 287.68 205.593 287.666 200.268ZM289.772 200.268C289.772 204.329 291.491 206.999 293.958 206.985C296.438 206.999 298.143 204.329 298.143 200.268C298.143 196.207 296.438 193.537 293.958 193.523C291.491 193.537 289.772 196.207 289.772 200.268Z" fill="black"/>
<path d="M331.709 189.644V208.109H329.519V199.2H324.059V197.345H329.519V189.644H331.709ZM311.669 203.415C317.337 201.518 321.287 197.921 321.786 193.41H312.916V191.555H324.169C324.142 197.977 319.61 202.867 312.611 205.186L311.669 203.415ZM316.021 214.067V206.226H318.238V212.212H332.346V214.067H316.021Z" fill="black"/>
<path d="M362.364 192.286V194.787C362.364 197.935 362.364 201.49 361.449 206.928L359.232 206.704C360.23 201.589 360.23 197.851 360.23 194.787V194.113H345.373V192.286H362.364ZM342.934 210.919V209.092H365.385V210.919H342.934Z" fill="black"/>
<path d="M387.892 189.616V203.359H385.702V196.389H381.018V194.563H385.702V189.616H387.892ZM368.434 192.511V190.797H379.438V196.98H370.679V199.959C374.851 199.959 377.872 199.846 381.489 199.172L381.683 200.942C377.899 201.589 374.74 201.729 370.346 201.729H368.489V195.349H377.276V192.511H368.434ZM371.15 206.507V204.792H378.745V202.376H380.907V204.792H388.446V206.507H371.15ZM372.869 211.032C372.869 208.769 375.446 207.533 379.798 207.547C384.15 207.533 386.727 208.769 386.727 211.032C386.727 213.336 384.15 214.545 379.798 214.545C375.446 214.545 372.869 213.336 372.869 211.032ZM375.003 211.032C374.989 212.282 376.735 212.957 379.798 212.971C382.847 212.957 384.621 212.282 384.621 211.032C384.621 209.865 382.847 209.12 379.798 209.12C376.735 209.12 374.989 209.865 375.003 211.032Z" fill="black"/>
<path d="M413.087 189.616V214.601H411.008V189.616H413.087ZM392.021 207.603C397.371 204.385 400.059 199.874 400.475 194.647H393.075V192.82H402.637C402.637 195.279 402.249 197.654 401.404 199.874H405.825V190.291H407.903V213.336H405.825V201.673H400.6C399.117 204.582 396.733 207.153 393.296 209.205L392.021 207.603Z" fill="black"/>
<path d="M39.0603 259.812V280.16H36.5381V262.454H36.4272L31.549 265.742V263.185L36.5381 259.812H39.0603Z" fill="black"/>
<path d="M48.5951 280.328C47.625 280.314 46.7935 279.499 46.8212 278.501C46.7935 277.518 47.625 276.703 48.5951 276.703C49.5791 276.703 50.3829 277.518 50.369 278.501C50.3829 279.499 49.5791 280.314 48.5951 280.328Z" fill="black"/>
<path d="M85.2188 277.49V279.345H62.6569V277.49H72.8014V272.768H65.4841V265.068H80.2297V261.133H65.4286V259.306H82.3639V266.866H67.646V270.941H82.946V272.768H74.9357V277.49H85.2188Z" fill="black"/>
<path d="M106.617 260.121V262.623C106.617 265.77 106.617 269.326 105.702 274.764L103.484 274.539C104.482 269.424 104.482 265.686 104.482 262.623V261.948H89.6258V260.121H106.617ZM87.1867 278.754V276.928H109.638V278.754H87.1867Z" fill="black"/>
<path d="M132.061 257.48V275.747H129.899V257.48H132.061ZM112.299 265.349C112.285 261.751 115.07 259.236 118.757 259.222C122.443 259.236 125.201 261.751 125.215 265.349C125.201 268.988 122.443 271.518 118.757 271.504C115.07 271.518 112.285 268.988 112.299 265.349ZM114.433 265.349C114.405 267.836 116.262 269.564 118.757 269.564C121.21 269.564 123.081 267.836 123.081 265.349C123.081 262.904 121.21 261.161 118.757 261.161C116.262 261.161 114.405 262.904 114.433 265.349ZM116.151 281.902V273.892H118.313V280.047H132.837V281.902H116.151Z" fill="black"/>
<path d="M156.591 257.48V275.747H154.429V257.48H156.591ZM136.828 265.349C136.814 261.751 139.6 259.236 143.286 259.222C146.973 259.236 149.731 261.751 149.745 265.349C149.731 268.988 146.973 271.518 143.286 271.504C139.6 271.518 136.814 268.988 136.828 265.349ZM138.963 265.349C138.935 267.836 140.792 269.564 143.286 269.564C145.739 269.564 147.61 267.836 147.61 265.349C147.61 262.904 145.739 261.161 143.286 261.161C140.792 261.161 138.935 262.904 138.963 265.349ZM140.681 281.902V273.892H142.843V280.047H157.367V281.902H140.681Z" fill="black"/>
<path d="M181.204 273.977V282.492H179.014V275.832H164.629V273.977H181.204ZM160.859 270.689C164.476 269.466 167.026 266.389 167.04 262.96V262.342H161.469V260.515H167.04V257.339H169.23V260.515H174.746V262.342H169.174V262.96C169.188 266.192 171.78 269.073 175.411 270.211L174.413 271.981C171.53 271.026 169.258 269.059 168.149 266.529C167.096 269.269 164.837 271.405 161.94 272.431L160.859 270.689ZM173.942 266.67V264.815H179.014V257.452H181.204V272.712H179.014V266.67H173.942Z" fill="black"/>
<path d="M30.0245 314.077L29.9968 312.222L36.843 304.915C39.2128 302.358 40.3492 300.981 40.3631 299.098C40.3492 297.004 38.6307 295.655 36.3718 295.641C33.9742 295.655 32.4775 297.187 32.4636 299.463H30.1077C30.0799 295.866 32.824 293.449 36.4549 293.449C40.0997 293.449 42.6775 295.936 42.6913 299.098C42.6775 301.374 41.6381 303.145 38.0902 306.855L33.4892 311.66V311.829H43.0516V314.077H30.0245Z" fill="black"/>
<path d="M48.5951 314.246C47.625 314.232 46.7935 313.417 46.8212 312.419C46.7935 311.435 47.625 310.62 48.5951 310.62C49.5791 310.62 50.3829 311.435 50.369 312.419C50.3829 313.417 49.5791 314.232 48.5951 314.246Z" fill="black"/>
<path d="M75.0465 293.899V310.002H63.6824V293.899H75.0465ZM65.789 308.203H72.8846V295.669H65.789V308.203ZM79.5644 316.354V291.369H81.7264V301.346H85.8563V303.257H81.7264V316.354H79.5644Z" fill="black"/>
<path d="M107.503 291.369V316.41H105.314V291.369H107.503ZM88.1014 302.021C88.1152 296.709 90.7206 293.322 94.3932 293.308C98.0519 293.322 100.699 296.709 100.685 302.021C100.699 307.346 98.0519 310.719 94.3932 310.705C90.7206 310.719 88.1152 307.346 88.1014 302.021ZM90.2079 302.021C90.2079 306.082 91.9264 308.752 94.3932 308.737C96.8739 308.752 98.5785 306.082 98.5785 302.021C98.5785 297.96 96.8739 295.29 94.3932 295.276C91.9264 295.29 90.2079 297.96 90.2079 302.021Z" fill="black"/>
<path d="M132.92 291.369V316.354H130.814V291.369H132.92ZM111.439 308.288C112.202 308.288 113.089 308.288 114.045 308.274V296.4H111.966V294.573H123.302V296.4H121.224V307.979C122.152 307.894 123.039 307.81 123.857 307.698L123.995 309.328C120.101 310.058 114.932 310.185 111.716 310.171L111.439 308.288ZM116.04 308.232C117.066 308.203 118.147 308.161 119.2 308.105V296.4H116.04V308.232ZM122.582 302.864V300.868H126.019V291.987H128.097V315.033H126.019V302.864H122.582Z" fill="black"/>
<path d="M156.563 291.369V316.41H154.373V291.369H156.563ZM137.161 302.021C137.175 296.709 139.78 293.322 143.453 293.308C147.111 293.322 149.758 296.709 149.745 302.021C149.758 307.346 147.111 310.719 143.453 310.705C139.78 310.719 137.175 307.346 137.161 302.021ZM139.267 302.021C139.267 306.082 140.986 308.752 143.453 308.737C145.933 308.752 147.638 306.082 147.638 302.021C147.638 297.96 145.933 295.29 143.453 295.276C140.986 295.29 139.267 297.96 139.267 302.021Z" fill="black"/>
<path d="M169.59 299.042C169.604 303.285 172.639 307.599 176.27 309.187L175.05 310.93C172.168 309.609 169.687 306.728 168.537 303.271C167.387 306.939 164.892 310.115 162.079 311.548L160.776 309.805C164.31 308.091 167.387 303.37 167.401 299.042V295.781H161.58V293.955H175.466V295.781H169.59V299.042ZM178.903 316.354V291.369H181.093V316.354H178.903Z" fill="black"/>
<path d="M205.65 291.397V309.665H203.488V291.397H205.65ZM185.888 299.266C185.874 295.669 188.66 293.154 192.346 293.14C196.032 293.154 198.79 295.669 198.804 299.266C198.79 302.906 196.032 305.435 192.346 305.421C188.66 305.435 185.874 302.906 185.888 299.266ZM188.022 299.266C187.994 301.754 189.852 303.482 192.346 303.482C194.799 303.482 196.67 301.754 196.67 299.266C196.67 296.821 194.799 295.079 192.346 295.079C189.852 295.079 187.994 296.821 188.022 299.266ZM189.741 315.82V307.81H191.903V313.965H206.426V315.82H189.741Z" fill="black"/>
<path d="M230.263 307.894V316.41H228.074V309.749H213.688V307.894H230.263ZM209.919 304.606C213.536 303.384 216.086 300.306 216.1 296.878V296.259H210.529V294.432H216.1V291.257H218.289V294.432H223.805V296.259H218.234V296.878C218.248 300.11 220.839 302.99 224.47 304.128L223.473 305.899C220.59 304.943 218.317 302.976 217.208 300.447C216.155 303.187 213.896 305.323 211 306.349L209.919 304.606ZM223.001 300.587V298.732H228.074V291.369H230.263V306.63H228.074V300.587H223.001Z" fill="black"/>
<path d="M36.5104 348.276C32.5191 348.276 29.6503 346.112 29.5256 342.88H32.0479C32.1865 344.819 34.0851 346.028 36.4826 346.028C39.1296 346.028 41.0421 344.58 41.056 342.458C41.0421 340.238 39.2959 338.678 36.1777 338.664H34.5424V336.444H36.1777C38.6169 336.444 40.3215 335.053 40.3076 332.959C40.3215 330.922 38.8525 329.573 36.5658 329.559C34.4177 329.573 32.4636 330.767 32.3528 332.762H29.9414C30.0661 329.53 33.0318 327.366 36.5935 327.366C40.4185 327.366 42.7467 329.91 42.719 332.819C42.7467 335.137 41.4163 336.824 39.3098 337.428V337.568C41.9291 337.976 43.509 339.873 43.4951 342.458C43.509 345.803 40.5155 348.276 36.5104 348.276Z" fill="black"/>
<path d="M48.5951 348.164C47.625 348.149 46.7935 347.334 46.8212 346.337C46.7935 345.353 47.625 344.538 48.5951 344.538C49.5791 344.538 50.3829 345.353 50.369 346.337C50.3829 347.334 49.5791 348.149 48.5951 348.164Z" fill="black"/>
<path d="M72.9954 328.21V334.73H76.7373V325.821H78.8161V349.007H76.7373V336.557H72.9954V343.554H63.5716V328.21H72.9954ZM65.6227 341.784H70.9444V329.98H65.6227V341.784ZM81.671 350.271V325.287H83.7775V350.271H81.671Z" fill="black"/>
<path d="M107.531 325.315V343.583H105.369V325.315H107.531ZM87.7688 333.184C87.7549 329.587 90.5405 327.071 94.2269 327.057C97.9133 327.071 100.671 329.587 100.685 333.184C100.671 336.824 97.9133 339.353 94.2269 339.339C90.5405 339.353 87.7549 336.824 87.7688 333.184ZM89.903 333.184C89.8753 335.671 91.7323 337.4 94.2269 337.4C96.6799 337.4 98.5508 335.671 98.5508 333.184C98.5508 330.739 96.6799 328.997 94.2269 328.997C91.7323 328.997 89.8753 330.739 89.903 333.184ZM91.6215 349.737V341.728H93.7834V347.882H108.307V349.737H91.6215Z" fill="black"/>
<path d="M132.92 325.287V350.271H130.814V325.287H132.92ZM111.439 342.205C112.202 342.205 113.089 342.205 114.045 342.191V330.317H111.966V328.491H123.302V330.317H121.224V341.896C122.152 341.812 123.039 341.728 123.857 341.615L123.995 343.245C120.101 343.976 114.932 344.102 111.716 344.088L111.439 342.205ZM116.04 342.149C117.066 342.121 118.147 342.079 119.2 342.023V330.317H116.04V342.149ZM122.582 336.781V334.786H126.019V325.905H128.097V348.95H126.019V336.781H122.582Z" fill="black"/>
<path d="M156.563 325.287V350.328H154.373V325.287H156.563ZM137.161 335.938C137.175 330.627 139.78 327.24 143.453 327.226C147.111 327.24 149.758 330.627 149.745 335.938C149.758 341.264 147.111 344.636 143.453 344.622C139.78 344.636 137.175 341.264 137.161 335.938ZM139.267 335.938C139.267 339.999 140.986 342.669 143.453 342.655C145.933 342.669 147.638 339.999 147.638 335.938C147.638 331.877 145.933 329.207 143.453 329.193C140.986 329.207 139.267 331.877 139.267 335.938Z" fill="black"/>
<path d="M169.59 332.959C169.604 337.203 172.639 341.517 176.27 343.105L175.05 344.847C172.168 343.526 169.687 340.646 168.537 337.189C167.387 340.856 164.892 344.032 162.079 345.466L160.776 343.723C164.31 342.009 167.387 337.287 167.401 332.959V329.699H161.58V327.872H175.466V329.699H169.59V332.959ZM178.903 350.271V325.287H181.093V350.271H178.903Z" fill="black"/>
<path d="M205.65 325.315V343.583H203.488V325.315H205.65ZM185.888 333.184C185.874 329.587 188.66 327.071 192.346 327.057C196.032 327.071 198.79 329.587 198.804 333.184C198.79 336.824 196.032 339.353 192.346 339.339C188.66 339.353 185.874 336.824 185.888 333.184ZM188.022 333.184C187.994 335.671 189.852 337.4 192.346 337.4C194.799 337.4 196.67 335.671 196.67 333.184C196.67 330.739 194.799 328.997 192.346 328.997C189.852 328.997 187.994 330.739 188.022 333.184ZM189.741 349.737V341.728H191.903V347.882H206.426V349.737H189.741Z" fill="black"/>
<path d="M230.263 341.812V350.328H228.074V343.667H213.688V341.812H230.263ZM209.919 338.524C213.536 337.301 216.086 334.224 216.1 330.795V330.177H210.529V328.35H216.1V325.174H218.289V328.35H223.805V330.177H218.234V330.795C218.248 334.027 220.839 336.908 224.47 338.046L223.473 339.817C220.59 338.861 218.317 336.894 217.208 334.364C216.155 337.105 213.896 339.24 211 340.266L209.919 338.524ZM223.001 334.505V332.65H228.074V325.287H230.263V340.547H228.074V334.505H223.001Z" fill="black"/>
<path d="M28.9158 377.753V375.673L37.9517 361.565H41.0283V375.533H43.8277V377.753H41.0283V381.913H38.6446V377.753H28.9158ZM31.6044 375.533H38.6446V364.769H38.3951L31.6044 375.364V375.533Z" fill="black"/>
<path d="M48.5951 382.081C47.625 382.067 46.7935 381.252 46.8212 380.254C46.7935 379.271 47.625 378.456 48.5951 378.456C49.5791 378.456 50.3829 379.271 50.369 380.254C50.3829 381.252 49.5791 382.067 48.5951 382.081Z" fill="black"/>
<path d="M85.1079 372.132V373.959H62.6569V372.132H72.8014V369.125H65.6504V359.795H67.8123V362.689H80.0079V359.795H82.1699V369.125H74.9634V372.132H85.1079ZM65.1515 378.203V376.432H82.3362V384.189H80.1465V378.203H65.1515ZM67.8123 367.355H80.0079V364.376H67.8123V367.355Z" fill="black"/>
<path d="M95.5296 363.589C95.5019 366.821 97.9549 369.743 101.6 370.924L100.546 372.638C97.6915 371.697 95.5157 369.729 94.4486 367.242C93.3954 370.01 91.1087 372.146 88.1568 373.172L87.0204 371.43C90.7345 370.165 93.3261 367.13 93.3399 363.617V362.717H87.741V360.891H101.018V362.717H95.5296V363.589ZM90.8454 383.852V374.1H93.0073V377.163H104.288V374.1H106.45V383.852H90.8454ZM93.0073 382.053H104.288V378.905H93.0073V382.053ZM104.288 372.891V359.204H106.45V364.994H110.164V366.849H106.45V372.891H104.288Z" fill="black"/>
<path d="M130.98 359.233V367.467H134.694V369.322H130.98V377.95H128.818V359.233H130.98ZM111.772 364.095V362.296H118.036V359.233H120.198V362.296H126.462V364.095H111.772ZM113.186 370.137C113.172 367.298 115.555 365.472 119.117 365.472C122.637 365.472 125.021 367.298 125.049 370.137C125.021 372.947 122.637 374.76 119.117 374.746C115.555 374.76 113.172 372.947 113.186 370.137ZM115.264 370.137C115.25 371.893 116.789 373.032 119.117 373.004C121.418 373.032 122.97 371.893 122.997 370.137C122.97 368.352 121.418 367.2 119.117 367.214C116.789 367.2 115.25 368.352 115.264 370.137ZM115.569 383.655V376.46H117.703V381.8H132.116V383.655H115.569Z" fill="black"/>
<path d="M163.742 359.204V384.189H161.552V359.204H163.742ZM143.675 377.697C150.341 374.493 153.75 369.701 154.235 363.729H144.811V361.931H156.452C156.424 369.111 153.126 375.477 144.866 379.496L143.675 377.697Z" fill="black"/>
<path d="M187.8 366.202V368.029H170.976V359.71H173.138V366.202H187.8ZM167.899 372.779V370.952H190.378V372.779H167.899ZM170.616 379.552C170.602 376.643 173.803 375.013 179.125 375.027C184.405 375.013 187.579 376.643 187.606 379.552C187.579 382.447 184.405 384.077 179.125 384.077C173.803 384.077 170.602 382.447 170.616 379.552ZM172.833 379.552C172.805 381.294 175.175 382.348 179.125 382.362C183.033 382.348 185.403 381.294 185.417 379.552C185.403 377.781 183.033 376.784 179.125 376.769C175.175 376.784 172.805 377.781 172.833 379.552Z" fill="black"/>
<path d="M212.774 359.233V377.5H210.612V359.233H212.774ZM193.011 367.102C192.997 363.504 195.783 360.989 199.469 360.975C203.156 360.989 205.914 363.504 205.928 367.102C205.914 370.741 203.156 373.271 199.469 373.256C195.783 373.271 192.997 370.741 193.011 367.102ZM195.146 367.102C195.118 369.589 196.975 371.317 199.469 371.317C201.922 371.317 203.793 369.589 203.793 367.102C203.793 364.657 201.922 362.914 199.469 362.914C196.975 362.914 195.118 364.657 195.146 367.102ZM196.864 383.655V375.645H199.026V381.8H213.55V383.655H196.864Z" fill="black"/>
<path d="M244.51 375.73V384.245H242.32V377.585H227.935V375.73H244.51ZM224.166 372.441C227.783 371.219 230.333 368.142 230.346 364.713V364.095H224.775V362.268H230.346V359.092H232.536V362.268H238.052V364.095H232.481V364.713C232.495 367.945 235.086 370.825 238.717 371.964L237.719 373.734C234.837 372.779 232.564 370.811 231.455 368.282C230.402 371.022 228.143 373.158 225.246 374.184L224.166 372.441ZM237.248 368.423V366.568H242.32V359.204H244.51V374.465H242.32V368.423H237.248Z" fill="black"/>
<path d="M267.682 359.204V369.519H271.812V371.345H267.682V384.189H265.52V359.204H267.682ZM248.474 365.05V363.223H254.821V359.514H256.983V363.223H263.136V365.05H248.474ZM249.887 372.863C249.873 369.491 252.423 367.13 255.93 367.13C259.408 367.13 261.944 369.491 261.972 372.863C261.944 376.25 259.408 378.596 255.93 378.596C252.423 378.596 249.873 376.25 249.887 372.863ZM251.966 372.863C251.952 375.139 253.629 376.741 255.93 376.713C258.202 376.741 259.865 375.139 259.893 372.863C259.865 370.601 258.202 368.971 255.93 368.985C253.629 368.971 251.952 370.601 251.966 372.863Z" fill="black"/>
<path d="M293.071 366.793V368.563H276.191V360.132H278.353V366.793H293.071ZM273.114 373.762V371.964H295.676V373.762H273.114ZM276.052 383.571V376.32H278.214V381.744H293.209V383.571H276.052Z" fill="black"/>
<path d="M325.223 375.73V384.245H323.033V377.585H308.648V375.73H325.223ZM304.878 372.441C308.495 371.219 311.045 368.142 311.059 364.713V364.095H305.488V362.268H311.059V359.092H313.249V362.268H318.765V364.095H313.193V364.713C313.207 367.945 315.799 370.825 319.43 371.964L318.432 373.734C315.549 372.779 313.277 370.811 312.168 368.282C311.115 371.022 308.856 373.158 305.959 374.184L304.878 372.441ZM317.961 368.423V366.568H323.033V359.204H325.223V374.465H323.033V368.423H317.961Z" fill="black"/>
<path d="M36.4826 416.111C32.8655 416.111 30.1215 413.849 29.9691 410.715H32.3805C32.5606 412.528 34.3068 413.877 36.4826 413.891C39.0881 413.877 40.9728 411.952 40.9728 409.394C40.9728 406.753 39.0188 404.799 36.3163 404.785C34.6256 404.757 33.309 405.291 32.5745 406.612H30.1631L31.5767 395.483H42.4419V397.731H33.6555L32.9071 403.689H33.1011C34.0019 402.987 35.3462 402.509 36.7598 402.509C40.5848 402.509 43.3981 405.375 43.412 409.338C43.3981 413.273 40.4878 416.111 36.4826 416.111Z" fill="black"/>
<path d="M48.5951 415.999C47.625 415.985 46.7935 415.17 46.8212 414.172C46.7935 413.188 47.625 412.373 48.5951 412.373C49.5791 412.373 50.3829 413.188 50.369 414.172C50.3829 415.17 49.5791 415.985 48.5951 415.999Z" fill="black"/>
<path d="M75.0465 395.651V411.755H63.6824V395.651H75.0465ZM65.789 409.956H72.8846V397.422H65.789V409.956ZM79.5644 418.107V393.122H81.7264V403.099H85.8563V405.01H81.7264V418.107H79.5644Z" fill="black"/>
<path d="M96.0008 400.794C96.0146 405.038 99.0497 409.352 102.681 410.94L101.461 412.682C98.5785 411.362 96.0978 408.481 94.9475 405.024C93.7973 408.692 91.3027 411.867 88.4894 413.301L87.1867 411.558C90.7206 409.844 93.7973 405.122 93.8111 400.794V397.534H87.9905V395.708H101.877V397.534H96.0008V400.794ZM105.314 418.107V393.122H107.503V418.107H105.314Z" fill="black"/>
<path d="M124.162 395.005V406.05H112.77V395.005H124.162ZM114.849 411.052V409.282H130.98V418.163H128.818V411.052H114.849ZM114.904 404.251H122.055V396.776H114.904V404.251ZM128.818 407.933V393.122H130.98V399.642H134.694V401.497H130.98V407.933H128.818Z" fill="black"/>
<path d="M163.742 393.122V418.107H161.552V393.122H163.742ZM143.675 411.615C150.341 408.411 153.75 403.619 154.235 397.647H144.811V395.848H156.452C156.424 403.029 153.126 409.394 144.866 413.413L143.675 411.615Z" fill="black"/>
<path d="M187.8 400.12V401.947H170.976V393.628H173.138V400.12H187.8ZM167.899 406.696V404.87H190.378V406.696H167.899ZM170.616 413.469C170.602 410.561 173.803 408.931 179.125 408.945C184.405 408.931 187.579 410.561 187.606 413.469C187.579 416.364 184.405 417.994 179.125 417.994C173.803 417.994 170.602 416.364 170.616 413.469ZM172.833 413.469C172.805 415.212 175.175 416.266 179.125 416.28C183.033 416.266 185.403 415.212 185.417 413.469C185.403 411.699 183.033 410.701 179.125 410.687C175.175 410.701 172.805 411.699 172.833 413.469Z" fill="black"/>
<path d="M212.774 393.15V411.418H210.612V393.15H212.774ZM193.011 401.019C192.997 397.422 195.783 394.907 199.469 394.893C203.156 394.907 205.914 397.422 205.928 401.019C205.914 404.659 203.156 407.188 199.469 407.174C195.783 407.188 192.997 404.659 193.011 401.019ZM195.146 401.019C195.118 403.507 196.975 405.235 199.469 405.235C201.922 405.235 203.793 403.507 203.793 401.019C203.793 398.574 201.922 396.832 199.469 396.832C196.975 396.832 195.118 398.574 195.146 401.019ZM196.864 417.573V409.563H199.026V415.718H213.55V417.573H196.864Z" fill="black"/>
<path d="M244.51 409.647V418.163H242.32V411.502H227.935V409.647H244.51ZM224.166 406.359C227.783 405.137 230.333 402.059 230.346 398.63V398.012H224.775V396.185H230.346V393.01H232.536V396.185H238.052V398.012H232.481V398.63C232.495 401.862 235.086 404.743 238.717 405.881L237.719 407.652C234.837 406.696 232.564 404.729 231.455 402.2C230.402 404.94 228.143 407.076 225.246 408.102L224.166 406.359ZM237.248 402.34V400.485H242.32V393.122H244.51V408.383H242.32V402.34H237.248Z" fill="black"/>
<path d="M39.513 463.627V466.128C39.513 469.276 39.513 472.831 38.5983 478.269L36.3809 478.045C37.3787 472.93 37.3787 469.192 37.3787 466.128V465.454H22.5223V463.627H39.513ZM20.0832 482.26V480.433H42.5342V482.26H20.0832Z" fill="black"/>
<path d="M64.9574 460.957V485.998H62.7955V460.957H64.9574ZM45.9988 465.117V463.29H57.4738V472.171H48.2716V478.073C52.3599 478.087 56.0048 477.89 60.4118 477.173L60.6335 479.028C56.1018 479.745 52.3599 479.928 48.1053 479.928H46.0542V470.372H55.2841V465.117H45.9988Z" fill="black"/>
<path d="M88.9052 463.487V465.988C88.8774 469.051 88.8774 472.48 87.9905 477.511L85.7731 477.258C86.7016 472.48 86.7016 468.981 86.7155 465.988V465.313H71.5264V463.487H88.9052ZM69.1427 482.401V480.574H77.9568V471.637H80.0911V480.574H91.5937V482.401H69.1427Z" fill="black"/>
<path d="M113.352 463.346V465.201H104.233V477.932C108.681 477.946 111.606 477.792 115.015 477.117L115.292 478.944C111.661 479.647 108.654 479.815 103.928 479.815H102.043V463.346H113.352ZM111.883 471.89V470.063H119.062V460.957H121.251V485.998H119.062V471.89H111.883Z" fill="black"/>
<path d="M137.882 463.346V465.201H128.763V477.932C133.211 477.946 136.135 477.792 139.545 477.117L139.822 478.944C136.191 479.647 133.184 479.815 128.458 479.815H126.573V463.346H137.882ZM136.413 471.89V470.063H143.591V460.957H145.781V485.998H143.591V471.89H136.413Z" fill="black"/>
<path d="M162.411 463.346V465.201H153.292V477.932C157.741 477.946 160.665 477.792 164.074 477.117L164.352 478.944C160.721 479.647 157.713 479.815 152.988 479.815H151.103V463.346H162.411ZM160.942 471.89V470.063H168.121V460.957H170.311V485.998H168.121V471.89H160.942Z" fill="black"/>
<path d="M190.073 465.566C190.073 468.812 192.54 471.918 196.143 473.183L195.007 474.925C192.235 473.913 190.087 471.82 189.034 469.248C187.967 472.115 185.68 474.419 182.756 475.515L181.619 473.773C185.25 472.452 187.884 469.122 187.884 465.594V464.498H182.312V462.7H195.589V464.498H190.073V465.566ZM185.361 479.084V477.258H201.936V485.942H199.747V479.084H185.361ZM194.813 469.36V467.506H199.747V460.957H201.936V475.937H199.747V469.36H194.813Z" fill="black"/>
<path d="M226.411 460.957V485.942H224.221V460.957H226.411ZM206.343 479.45C213.009 476.246 216.419 471.454 216.904 465.482H207.48V463.683H219.121C219.093 470.864 215.795 477.23 207.535 481.248L206.343 479.45Z" fill="black"/>
<path d="M28.3152 498.922C28.3152 502.323 30.8652 505.442 34.4407 506.679L33.2489 508.421C30.5326 507.409 28.3845 505.344 27.3035 502.73C26.2502 505.695 24.0467 507.986 21.1641 509.124L20 507.353C23.6864 505.962 26.1671 502.618 26.181 498.753V496.168H28.3152V498.922ZM23.2706 515.25C23.2845 512.398 26.375 510.726 31.4472 510.726C36.5056 510.726 39.5684 512.398 39.5684 515.25C39.5684 518.159 36.5056 519.803 31.4472 519.803C26.375 519.803 23.2845 518.159 23.2706 515.25ZM25.4603 515.25C25.4326 517.021 27.7331 518.047 31.4472 518.061C35.1752 518.047 37.448 517.021 37.4619 515.25C37.448 513.55 35.1752 512.496 31.4472 512.496C27.7331 512.496 25.4326 513.55 25.4603 515.25ZM37.1847 510.079V494.875H39.3467V501.395H43.0608V503.25H39.3467V510.079H37.1847Z" fill="black"/>
<path d="M51.9303 501.985C51.9303 505.962 53.8428 510.248 57.1134 512.215L55.8662 513.93C53.4825 512.468 51.7779 509.798 50.9186 506.749C50.0178 510.079 48.1885 512.946 45.7216 514.464L44.3358 512.805C47.745 510.782 49.8238 506.355 49.8238 502.07V497.236H51.9303V501.985ZM54.3971 505.723V503.84H58.5825V495.409H60.6335V518.595H58.5825V505.723H54.3971ZM63.627 519.859V494.875H65.7335V519.859H63.627Z" fill="black"/>
<path d="M88.2122 494.875V505.049H92.2035V506.904H88.2122V519.859H86.0503V494.875H88.2122ZM69.309 513.367C75.6702 510.164 79.1348 505.344 79.6337 499.428H70.4455V497.573H81.8373C81.8234 504.641 78.5528 511.091 70.5286 515.11L69.309 513.367Z" fill="black"/>
<path d="M121.196 494.875V507.606H119.034V502.294H113.892C113.435 505.175 110.913 507.114 107.587 507.1C103.872 507.114 101.17 504.768 101.184 501.395C101.17 498.065 103.872 495.76 107.587 495.774C110.885 495.76 113.393 497.629 113.878 500.44H119.034V494.875H121.196ZM103.263 501.395C103.263 503.672 105.064 505.288 107.587 505.273C110.026 505.288 111.855 503.672 111.855 501.395C111.855 499.175 110.026 497.573 107.587 497.601C105.064 497.573 103.263 499.175 103.263 501.395ZM105.231 510.754V508.983H121.196V514.969H107.448V517.752H122.138V519.522H105.286V513.283H119.034V510.754H105.231Z" fill="black"/>
<path d="M137.715 497.404V513.508H126.351V497.404H137.715ZM128.458 511.709H135.553V499.175H128.458V511.709ZM142.233 519.859V494.875H144.395V504.852H148.525V506.763H144.395V519.859H142.233Z" fill="black"/>
<path d="M172.916 504.852V506.707H168.925V519.859H166.763V494.875H168.925V504.852H172.916ZM150.881 513.508V497.348H153.043V511.653C156.646 511.653 160.319 511.372 164.379 510.501L164.657 512.384C160.402 513.255 156.577 513.508 152.849 513.508H150.881Z" fill="black"/>
<path d="M201.853 494.875V507.662H199.691V494.875H201.853ZM181.924 506.341C188.105 504.95 191.709 501.957 192.097 497.938H183.172V496.112H194.48C194.466 502.491 190.018 506.468 182.728 508.196L181.924 506.341ZM185.833 510.613V508.843H201.853V514.885H188.05V517.864H202.74V519.635H185.888V513.199H199.691V510.613H185.833Z" fill="black"/>
<path d="M212.663 496.814C216.017 496.828 218.442 499.751 218.775 504.43H224.304V494.875H226.466V519.916H224.304V506.257H218.802C218.567 511.161 216.1 514.225 212.663 514.211C209.018 514.225 206.468 510.852 206.482 505.526C206.468 500.215 209.018 496.828 212.663 496.814ZM208.561 505.526C208.575 509.587 210.238 512.257 212.663 512.243C215.074 512.257 216.765 509.587 216.765 505.526C216.765 501.465 215.074 498.795 212.663 498.781C210.238 498.795 208.575 501.465 208.561 505.526Z" fill="black"/>
<path d="M250.885 494.875V507.859H248.751V494.875H250.885ZM230.929 506.145C234.601 504.908 237.234 501.845 237.248 498.416V498.135H231.483V496.308H245.12V498.135H239.438V498.416C239.452 501.662 242.071 504.529 245.785 505.639L244.704 507.353C241.794 506.426 239.479 504.444 238.384 501.887C237.317 504.683 234.961 506.861 231.954 507.887L230.929 506.145ZM234.892 510.81V509.068H250.913V515.026H237.082V517.808H251.8V519.578H234.948V513.367H248.751V510.81H234.892Z" fill="black"/>
<path d="M263.912 502.547C263.926 506.791 266.961 511.105 270.592 512.693L269.372 514.435C266.49 513.115 264.009 510.234 262.859 506.777C261.709 510.445 259.214 513.62 256.401 515.054L255.098 513.311C258.632 511.597 261.709 506.875 261.722 502.547V499.287H255.902V497.461H269.788V499.287H263.912V502.547ZM273.225 519.859V494.875H275.415V519.859H273.225Z" fill="black"/>
<path d="M299.557 502.463V504.234H282.677V495.802H284.839V502.463H299.557ZM279.6 509.433V507.634H302.162V509.433H279.6ZM282.538 519.241V511.99H284.7V517.414H299.695V519.241H282.538Z" fill="black"/>
<path d="M333.843 514.801V516.656H311.281V514.801H321.425V508.702H313.942V496.983H331.043V508.702H323.56V514.801H333.843ZM316.076 506.932H328.937V498.753H316.076V506.932Z" fill="black"/>
<path d="M358.373 514.857V516.712H335.811V514.857H358.373ZM338.582 498.613V496.786H355.518V504.346H340.8V508.449H356.1V510.22H338.638V502.547H353.383V498.613H338.582Z" fill="black"/>
<path d="M371.261 496.73C371.261 498.655 370.915 500.411 370.236 502.013H374.227V495.437H376.306V508.955H374.227V503.84H369.266C367.658 506.341 365.122 508.351 361.726 509.826L360.59 508.196C365.648 506.103 368.573 502.786 369.016 498.557H361.643V496.73H371.261ZM361.81 518.145C364.914 517.007 366.854 514.281 366.854 511.878V510.192H368.933V511.878C368.905 514.126 370.083 516.459 372.411 517.822C374.781 516.318 375.987 513.775 376.001 511.878V510.192H378.107V511.878C378.107 514.464 379.978 517.091 383.152 518.145L382.071 519.775C379.604 518.89 377.872 517.133 377.026 515.026C376.278 517.063 374.781 519.002 372.481 520C370.069 519.044 368.573 517.176 367.852 515.068C366.965 517.105 365.26 518.862 362.918 519.775L361.81 518.145ZM379.188 509.349V494.903H381.267V509.349H379.188Z" fill="black"/>
<path d="M403.94 494.875V504.768H408.07V506.622H403.94V519.916H401.778V494.875H403.94ZM385.951 513.648V497.32H397.454V499.147H388.113V511.794C392.576 511.78 395.722 511.583 399.394 510.894L399.671 512.805C395.805 513.508 392.576 513.648 387.892 513.648H385.951Z" fill="black"/>
</g>
<defs>
<filter id="filter0_f_105_73" x="0" y="0" width="740" height="540" filterUnits="userSpaceOnUse" color-interpolation-filters="sRGB">
<feFlood flood-opacity="0" result="BackgroundImageFix"/>
<feBlend mode="normal" in="SourceGraphic" in2="BackgroundImageFix" result="shape"/>
<feGaussianBlur stdDeviation="10" result="effect1_foregroundBlur_105_73"/>
</filter>
</defs>
</svg>
