<svg width="320" height="80" viewBox="0 0 320 80" fill="none" xmlns="http://www.w3.org/2000/svg">
<rect width="320" height="80" rx="40" fill="#FDF7F5"/>
<path d="M80.6348 27.9336V42.5352H78.4746V39.2539H72.0215V37.4766H78.4746V34.1953H72.2676C70.668 38.1055 66.9219 40.9355 61.7129 42.4805L60.8105 40.7852C66.6758 39.0488 70.3535 35.7539 70.7773 31.543H62.041V29.7383H73.1152C73.1152 30.6953 73.0059 31.6113 72.8008 32.4727H78.4746V27.9336H80.6348ZM64.5566 47.4297C64.543 44.5312 67.7012 42.7812 72.6777 42.7812C77.5996 42.7812 80.7715 44.5312 80.7715 47.4297C80.7715 50.3418 77.5996 52.1055 72.6777 52.1055C67.7012 52.1055 64.543 50.3418 64.5566 47.4297ZM66.6621 47.4297C66.6758 49.2617 69.0137 50.3691 72.6777 50.3555C76.2871 50.3691 78.625 49.2617 78.6387 47.4297C78.625 45.5977 76.2871 44.4902 72.6777 44.5039C69.0137 44.4902 66.6758 45.5977 66.6621 47.4297ZM105.518 27.9062V52.2148H103.439V39.3359H100.049V50.9844H97.998V28.4258H100.049V37.5586H103.439V27.9062H105.518ZM85.584 45.6797V30.75H94.8809V45.6797H85.584ZM87.6074 43.957H92.8574V32.4727H87.6074V43.957ZM124.549 34.4414C124.535 38.8848 127.557 43.3418 131.139 44.9688L129.826 46.6641C127.051 45.3242 124.658 42.4395 123.496 38.9805C122.375 42.6445 119.982 45.7207 117.139 47.1562L115.771 45.3516C119.395 43.6973 122.389 39.0488 122.416 34.4414V30.0117H124.549V34.4414ZM133.791 52.2695V27.9062H135.951V52.2695H133.791ZM148.338 32.418C148.352 35.6582 150.73 38.6113 154.326 39.8555L153.232 41.5234C150.457 40.5391 148.338 38.5566 147.299 36.041C146.26 38.8027 144.031 40.9492 141.174 41.9883L140.025 40.3203C143.662 39.0352 146.205 35.9043 146.232 32.418V31.3789H140.682V29.6289H153.807V31.3789H148.338V32.418ZM143.197 45.5977V43.8477H159.111V52.2148H156.979V45.5977H143.197ZM156.979 42.5625V27.9062H159.111V34.332H162.775V36.1641H159.111V42.5625H156.979ZM176.447 32.1172V33.8672H164.252V32.1172H169.311V28.6445H171.443V32.1172H176.447ZM165.127 41.0312C165.127 37.8047 167.328 35.5215 170.35 35.5078C173.412 35.5215 175.6 37.8047 175.627 41.0312C175.6 44.2988 173.412 46.5957 170.35 46.6094C167.328 46.5957 165.127 44.2988 165.127 41.0312ZM167.041 41.0312C167.041 43.1914 168.422 44.7363 170.35 44.7227C172.291 44.7363 173.713 43.1914 173.713 41.0312C173.713 38.8984 172.291 37.3398 170.35 37.3125C168.422 37.3398 167.041 38.8984 167.041 41.0312ZM177.705 51.0117V28.5078H179.729V38.1602H182.955V27.9062H185.006V52.2148H182.955V39.9375H179.729V51.0117H177.705ZM210.764 47.3203V49.0977H188.506V47.3203H198.514V42.0703H191.131V29.6289H193.291V34.0312H205.924V29.6289H208.029V42.0703H200.619V47.3203H210.764ZM193.291 40.3203H205.924V35.7812H193.291V40.3203ZM232.803 27.9062V52.2148H230.643V27.9062H232.803ZM213.006 45.8984C219.582 42.7812 222.945 38.1191 223.424 32.3086H214.127V30.5586H225.611C225.584 37.5449 222.33 43.7383 214.182 47.6484L213.006 45.8984ZM257.986 43.082L245.49 49.3984V46.8555L254.951 42.3574V42.1934L245.49 37.6406V35.0977L257.986 41.4414V43.082Z" fill="black"/>
</svg>
