<svg width="300" height="210" viewBox="0 0 300 210" fill="none" xmlns="http://www.w3.org/2000/svg">
<path fill-rule="evenodd" clip-rule="evenodd" d="M300 135C300 148.165 293.934 159.578 285.256 168.696C276.652 177.737 264.912 185.196 251.551 191.133C224.791 203.027 188.876 210 150 210C111.124 210 75.2079 203.027 48.4485 191.133C35.0877 185.196 23.3468 177.737 14.7431 168.696C6.0657 159.578 0 148.165 0 135V75C0 61.8349 6.0657 50.4225 14.7431 41.3045C23.3468 32.2638 35.0877 24.8046 48.4485 18.8664C75.2079 6.97335 111.124 0 150 0C188.876 0 224.791 6.97335 251.551 18.8664C264.912 24.8046 276.652 32.2638 285.256 41.3045C293.934 50.4225 300 61.8349 300 75V135ZM30 75C30 71.5965 31.4895 67.2246 36.4749 61.986C41.5338 56.6701 49.5633 51.2005 60.6327 46.2807C82.7337 36.4581 114.317 30 150 30C185.684 30 217.266 36.4581 239.367 46.2807C250.437 51.2005 258.466 56.6701 263.525 61.986C268.51 67.2246 270 71.5965 270 75C270 78.4035 268.51 82.776 263.525 88.014C258.466 93.33 250.437 98.799 239.367 103.719C217.266 113.543 185.684 120 150 120C114.317 120 82.7337 113.543 60.6327 103.719C49.5633 98.799 41.5338 93.33 36.4749 88.014C31.4895 82.776 30 78.4035 30 75Z" fill="#FFDA00"/>
</svg>
