<svg width="100" height="100" viewBox="0 0 100 100" fill="none" xmlns="http://www.w3.org/2000/svg">
<path d="M70.2297 36.1054C72.6992 38.5754 76.7027 38.5744 79.1716 36.1054C81.6416 33.6364 81.6421 29.6324 79.1716 27.1629L53.8623 1.85211C51.3923 -0.61787 47.3889 -0.616871 44.9189 1.85211C42.4494 4.32109 42.4494 8.32507 44.9189 10.7946L70.2297 36.1054Z" fill="black"/>
<path d="M10.7944 44.9205C8.32545 42.4505 4.32147 42.4505 1.85249 44.9205C-0.616995 47.3895 -0.617995 51.393 1.85249 53.863L27.1618 79.1723C29.6318 81.6422 33.6348 81.6422 36.1053 79.1723C38.5752 76.7033 38.5752 72.6993 36.1053 70.2293L10.7944 44.9205Z" fill="black"/>
<path d="M96.8024 83.9641L59.2726 51.9678C60.9666 50.0168 62.5716 47.9858 64.0541 45.8598L64.8286 44.7499C66.4296 42.4539 66.1541 39.3399 64.1746 37.3604L43.6643 16.8501C41.6848 14.8706 38.5708 14.5956 36.2748 16.1966L34.4659 17.4581C27.8389 22.08 22.0814 27.8375 17.459 34.4639L16.197 36.2734C14.5955 38.5699 14.8705 41.6844 16.85 43.6634L37.3613 64.1737C39.3408 66.1532 42.4543 66.4287 44.7503 64.8272L45.8602 64.0527C47.9852 62.5707 50.0162 60.9667 51.9667 59.2737L83.9635 96.8025C85.612 98.736 87.9934 99.893 90.5314 99.9925C93.0709 100.093 95.5364 99.13 97.3329 97.334C99.1304 95.5375 100.094 93.0725 99.9929 90.533C99.8924 87.9935 98.7354 85.6131 96.8024 83.9641Z" fill="black"/>
</svg>
