<svg width="72" height="70" viewBox="0 0 72 70" fill="none" xmlns="http://www.w3.org/2000/svg">
<path d="M71.7375 35C71.7375 54.3667 55.892 70 36.2626 70C16.6331 70 0.787598 54.3667 0.787598 35C0.787598 15.6333 16.6331 0 36.2626 0C55.892 0 71.7375 15.6333 71.7375 35Z" fill="#FFDD67"/>
<path d="M56.365 42.0001C56.365 41.0668 55.7738 39.9001 54.2365 39.5501C50.0978 38.7335 44.0671 38.0335 36.2626 38.0335C28.4581 38.0335 22.4273 38.8501 18.2886 39.5501C16.7513 39.9001 16.1601 41.0668 16.1601 42.0001C16.1601 50.5168 22.7821 59.0335 36.2626 59.0335C49.743 59.0335 56.365 50.5168 56.365 42.0001Z" fill="#664E27"/>
<path d="M32.1241 29.0502C29.8773 23.1002 26.5663 20.0669 23.2553 20.0669C19.9443 20.0669 16.6333 23.1002 14.3866 29.0502C14.1501 29.6336 15.3326 30.6836 15.9238 30.1002C18.0523 27.8836 20.6538 26.9502 23.2553 26.9502C25.8568 26.9502 28.4583 27.8836 30.5868 30.1002C31.2963 30.6836 32.3606 29.6336 32.1241 29.0502Z" fill="#664E27"/>
<path d="M58.0207 29.0502C55.7739 23.1002 52.4629 20.0669 49.1519 20.0669C45.8409 20.0669 42.5299 23.1002 40.2832 29.0502C40.0467 29.6336 41.2292 30.6836 41.8204 30.1002C43.9489 27.8836 46.5504 26.9502 49.1519 26.9502C51.8717 26.9502 54.3549 27.8836 56.4834 30.1002C57.0747 30.6836 58.2572 29.6336 58.0207 29.0502Z" fill="#664E27"/>
<path d="M51.2803 42.3498C48.6788 41.8831 43.2393 41.1831 36.2625 41.1831C29.2858 41.1831 23.8463 41.8831 21.2448 42.3498C19.7075 42.5831 19.5893 43.1664 19.7075 44.0998C19.8258 44.5664 19.8258 45.2664 20.0623 45.9664C20.1805 46.6664 20.417 47.0164 21.5995 46.8998C23.8463 46.6664 48.797 46.6664 51.0438 46.8998C52.2262 47.0164 52.3445 46.6664 52.581 45.9664C52.6993 45.2664 52.8175 44.6831 52.9357 44.0998C52.9357 43.1664 52.8175 42.5831 51.2803 42.3498Z" fill="white"/>
<path d="M71.7375 35C71.7375 54.3667 55.892 70 36.2626 70C16.6331 70 0.787598 54.3667 0.787598 35C0.787598 15.6333 16.6331 0 36.2626 0C55.892 0 71.7375 15.6333 71.7375 35Z" fill="#FFDD67"/>
<path d="M56.365 42.0001C56.365 41.0668 55.7738 39.9001 54.2365 39.5501C50.0978 38.7335 44.0671 38.0335 36.2626 38.0335C28.4581 38.0335 22.4273 38.8501 18.2886 39.5501C16.7513 39.9001 16.1601 41.0668 16.1601 42.0001C16.1601 50.5168 22.7821 59.0335 36.2626 59.0335C49.743 59.0335 56.365 50.5168 56.365 42.0001Z" fill="#664E27"/>
<path d="M32.1241 29.0502C29.8773 23.1002 26.5663 20.0669 23.2553 20.0669C19.9443 20.0669 16.6333 23.1002 14.3866 29.0502C14.1501 29.6336 15.3326 30.6836 15.9238 30.1002C18.0523 27.8836 20.6538 26.9502 23.2553 26.9502C25.8568 26.9502 28.4583 27.8836 30.5868 30.1002C31.2963 30.6836 32.3606 29.6336 32.1241 29.0502Z" fill="#664E27"/>
<path d="M58.0207 29.0502C55.7739 23.1002 52.4629 20.0669 49.1519 20.0669C45.8409 20.0669 42.5299 23.1002 40.2832 29.0502C40.0467 29.6336 41.2292 30.6836 41.8204 30.1002C43.9489 27.8836 46.5504 26.9502 49.1519 26.9502C51.8717 26.9502 54.3549 27.8836 56.4834 30.1002C57.0747 30.6836 58.2572 29.6336 58.0207 29.0502Z" fill="#664E27"/>
<path d="M51.2803 42.3498C48.6788 41.8831 43.2393 41.1831 36.2625 41.1831C29.2858 41.1831 23.8463 41.8831 21.2448 42.3498C19.7075 42.5831 19.5893 43.1664 19.7075 44.0998C19.8258 44.5664 19.8258 45.2664 20.0623 45.9664C20.1805 46.6664 20.417 46.8998 21.5995 46.8998H51.0438C52.2262 46.8998 52.3445 46.6664 52.581 45.9664C52.6993 45.2664 52.8175 44.6831 52.9357 44.0998C52.9357 43.1664 52.8175 42.5831 51.2803 42.3498Z" fill="white"/>
</svg>
