<svg width="71" height="70" viewBox="0 0 71 70" fill="none" xmlns="http://www.w3.org/2000/svg">
<path d="M18.3286 69.2999C26.4921 69.2999 33.1098 68.5164 33.1098 67.5499C33.1098 66.5834 26.4921 65.7999 18.3286 65.7999C10.1652 65.7999 3.54748 66.5834 3.54748 67.5499C3.54748 68.5164 10.1652 69.2999 18.3286 69.2999Z" fill="#65B1EF"/>
<path d="M49.6651 69.9997C61.4204 69.9997 70.9499 69.0595 70.9499 67.8997C70.9499 66.7399 61.4204 65.7997 49.6651 65.7997C37.9097 65.7997 28.3802 66.7399 28.3802 67.8997C28.3802 69.0595 37.9097 69.9997 49.6651 69.9997Z" fill="#65B1EF"/>
<path d="M35.4748 70C55.067 70 70.9496 54.33 70.9496 35C70.9496 15.67 55.067 0 35.4748 0C15.8826 0 0 15.67 0 35C0 54.33 15.8826 70 35.4748 70Z" fill="#FFDD67"/>
<path d="M50.4924 51.3333C48.8369 47.1333 44.8164 44.3333 35.4748 44.3333C26.0148 44.3333 22.1126 47.1333 20.4571 51.3333C19.6293 53.55 20.8118 57.1667 20.8118 57.1667C22.3491 61.7167 22.1126 63 35.4748 63C48.8369 63 48.6004 61.7167 50.1377 57.1667C50.1377 57.1667 51.4384 53.55 50.4924 51.3333Z" fill="#664E27"/>
<path d="M46.1172 50.1667C46.2355 49.8167 46.1172 49.4667 45.8807 49.2333C45.8807 49.2333 43.5157 46.6667 35.4748 46.6667C27.4338 46.6667 25.0689 49.2333 25.0689 49.2333C24.8324 49.35 24.8324 49.8167 24.8324 50.1667L25.0689 50.8667C25.1871 51.2167 25.4236 51.45 25.6601 51.45H45.2895C45.526 51.45 45.8807 51.2167 45.8807 50.8667L46.1172 50.1667Z" fill="white"/>
<path d="M50.256 68.2502H58.2969C67.9933 56.7002 56.5232 44.9169 59.3611 33.4836C56.6414 33.4836 53.9217 36.4002 51.3202 36.4002C47.5362 47.4836 59.9524 56.7002 50.256 68.2502ZM20.6936 68.2502H12.6527C2.95623 56.7002 14.4264 44.9169 11.5884 33.4836C14.3082 33.4836 17.0279 36.4002 19.6294 36.4002C23.4134 47.4836 10.9972 56.7002 20.6936 68.2502Z" fill="#65B1EF"/>
<path d="M45.7626 19.0166C49.3101 22.5166 54.2765 24.2666 59.243 23.7999C59.9525 23.6833 60.3073 26.2499 59.4795 26.3666C53.6853 26.8333 48.0093 24.8499 43.9889 20.7666C43.2794 20.1833 45.2896 18.5499 45.7626 19.0166ZM11.825 23.7999C16.7915 24.2666 21.758 22.5166 25.3055 19.0166C25.7785 18.5499 27.7887 20.1833 27.1975 20.7666C23.177 24.8499 17.3828 26.8333 11.7068 26.3666C10.6426 26.3666 11.1156 23.7999 11.825 23.7999Z" fill="#917524"/>
<path d="M40.0868 33.0164C45.0532 42.3498 55.1044 42.3498 60.0709 33.0164C60.3074 32.5498 59.7161 32.3164 58.8884 31.8498C53.9219 35.6998 45.7627 35.3498 41.2693 31.8498C40.5598 32.3164 39.8503 32.5498 40.0868 33.0164ZM10.8792 33.0164C15.8456 42.3498 25.8968 42.3498 30.8633 33.0164C31.0998 32.5498 30.5086 32.3164 29.6808 31.8498C24.7143 35.6998 16.5551 35.3498 12.0617 31.8498C11.2339 32.3164 10.6427 32.5498 10.8792 33.0164Z" fill="#664E27"/>
</svg>
