<svg width="71" height="70" viewBox="0 0 71 70" fill="none" xmlns="http://www.w3.org/2000/svg">
<path d="M70.9997 35.0216C70.9997 54.3763 55.1709 70 35.562 70C15.9531 70 0.12421 54.3763 0.12421 35.0216C0.12421 15.6669 15.9531 0.0432675 35.562 0.0432675C55.1709 0.0432675 70.9997 15.6669 70.9997 35.0216Z" fill="#FFDD67"/>
<path d="M70.7635 13.1016C70.1729 9.95355 68.401 7.38847 65.4479 6.57231C62.2584 5.75615 59.4234 6.92209 56.7065 9.72036C55.1709 5.52296 52.8084 2.37491 49.0284 0.742582C45.2483 -0.889742 41.4683 0.276204 39.1058 3.19107C36.6251 6.22253 35.6801 11.0029 38.2789 17.1824C40.7595 23.0121 51.7452 34.6716 52.0996 35.0214C52.5721 34.7882 64.8572 27.2095 67.8104 23.4785C70.7635 19.8641 71.3541 16.2497 70.7635 13.1016ZM32.0182 3.19107C29.6557 0.276204 25.8757 -0.889742 22.0957 0.742582C18.3156 2.37491 15.9531 5.52296 14.4175 9.72036C11.5825 7.03869 8.74743 5.75615 5.55803 6.6889C2.72301 7.50507 0.833 10.0701 0.242371 13.2182C-0.348258 16.2497 0.360497 19.9807 3.19552 23.5951C6.26679 27.2095 18.5519 34.7882 19.0244 35.0214C19.3788 34.6716 30.3645 23.0121 32.8451 17.1824C35.4439 11.0029 34.4989 6.33912 32.0182 3.19107Z" fill="#F46767"/>
<path d="M55.6434 42.1336C55.6434 41.2008 55.0527 40.0349 53.5171 39.6851C49.3827 38.8689 43.3583 38.1693 35.562 38.1693C27.7657 38.1693 21.7412 38.9855 17.6068 39.6851C15.9531 40.0349 15.4806 41.2008 15.4806 42.1336C15.4806 50.645 22.0956 59.1564 35.562 59.1564C49.0283 59.0398 55.6434 50.5284 55.6434 42.1336Z" fill="#664E27"/>
<path d="M50.5639 42.3669C47.9651 41.9005 42.5313 41.2009 35.5619 41.2009C28.5925 41.2009 23.1587 41.9005 20.5599 42.3669C19.0243 42.6001 18.9062 43.183 19.0243 44.1158C19.1424 44.5822 19.1424 45.2817 19.3787 45.9813C19.4968 46.6809 19.7331 47.0306 20.9143 46.9141C23.1587 46.6809 48.0833 46.6809 50.3277 46.9141C51.5089 47.0306 51.627 46.6809 51.8633 45.9813C51.9814 45.2817 52.0995 44.6987 52.2177 44.1158C52.2177 43.183 52.0995 42.6001 50.5639 42.3669Z" fill="white"/>
</svg>
