<svg width="20" height="15" viewBox="0 0 20 15" fill="none" xmlns="http://www.w3.org/2000/svg">
<mask id="mask0_67_79" style="mask-type:alpha" maskUnits="userSpaceOnUse" x="0" y="0" width="20" height="15">
<path d="M10 15C15.5 15 20 10.5 20 5L17.5 5C17.5 9.15 14.15 12.5 10 12.5C5.85 12.5 2.5 9.15 2.5 5L8.74228e-07 5C3.93402e-07 10.5 4.5 15 10 15ZM11.475 9.775C13.5 9.15 15 7.25 15 5C15 2.225 12.75 3.19859e-07 10 7.94466e-08C7.225 -1.63152e-07 5 2.225 5 5C5 7.25 6.475 9.125 8.525 9.775L10 7.575L11.475 9.775Z" fill="#9A9A9A"/>
</mask>
<g mask="url(#mask0_67_79)">
<path d="M4.58447 15.5396L-1.11933 15.5396L-1.11933 4.20903L4.58447 4.20903L4.58447 15.5396Z" fill="#9A9A9A"/>
<path d="M21.0791 15.5396L-1.11948 15.5395L-1.11948 10.067L21.0791 10.067L21.0791 15.5396Z" fill="#9A9A9A"/>
<path d="M21.0791 15.5396L15.1441 15.5396L15.1441 4.20903L21.0791 4.20903L21.0791 15.5396Z" fill="#9A9A9A"/>
</g>
</svg>
